<svg width="50" height="50" viewBox="0 0 50 50" fill="none" xmlns="http://www.w3.org/2000/svg">
<circle cx="25" cy="25" r="25" fill="#252839"/>
<path d="M35.8333 30.9997V34.0004C35.8333 35.1043 34.8627 36 33.6667 36H16.3333C13.9405 36 12 34.2086 12 32.0007V15.9989C12 14.8957 12.9707 14 14.1667 14H31.5C32.696 14 33.6667 14.8957 33.6667 15.9996V18.0001C34.8627 18.0001 35.8333 18.8958 35.8333 19.9997V23.0004C37.0293 23.0004 38 23.8961 38 25V28.9993C38 30.1048 37.0293 30.9997 35.8333 30.9997ZM33.6667 30.9997H30.4167C28.0238 30.9997 26.0833 29.2091 26.0833 27.0004C26.0833 24.791 28.0238 23.0004 30.4167 23.0004H33.6667V19.9997H14.1667V32.0007C14.1667 33.1054 15.1373 34.0011 16.3333 34.0011H33.6667V31.0005V30.9997ZM14.1667 18.0001H31.5V15.9996H14.1667V18.0001ZM30.4167 25C29.2207 25 28.25 25.8957 28.25 26.9996C28.25 28.1044 29.2207 29.0001 30.4167 29.0001H35.8333V25H30.4167ZM30.4167 27.9999C29.8187 27.9999 29.3333 27.552 29.3333 26.9996C29.3333 26.4481 29.8187 26.0002 30.4167 26.0002C31.0147 26.0002 31.5 26.4481 31.5 26.9996C31.5 27.552 31.0147 27.9999 30.4167 27.9999Z" fill="white"/>
</svg>
