<svg width="26" height="26" viewBox="0 0 26 26" fill="none" xmlns="http://www.w3.org/2000/svg">
<path d="M15.1288 24.3751H10.8753C10.5515 24.377 10.2381 24.261 9.99359 24.0486C9.7491 23.8363 9.59031 23.5422 9.54688 23.2213L9.21172 20.8813C8.80465 20.6868 8.41345 20.4606 8.04172 20.2049L5.78297 21.1048C5.48208 21.2131 5.15254 21.2113 4.85283 21.0998C4.55312 20.9882 4.30262 20.7741 4.14578 20.4954L2.03125 16.8594C1.87038 16.5803 1.81511 16.2526 1.8755 15.9361C1.9359 15.6196 2.10794 15.3353 2.36031 15.1349L4.24937 13.6683C4.22906 13.4266 4.21891 13.2073 4.21891 12.998C4.21891 12.7888 4.21891 12.5674 4.24937 12.3277L2.36437 10.8632C2.11043 10.6645 1.93686 10.3808 1.87564 10.0643C1.81442 9.74771 1.86968 9.4197 2.03125 9.14069L4.15594 5.48444C4.3148 5.20626 4.56843 4.9945 4.8705 4.88784C5.17257 4.78118 5.50294 4.78674 5.80125 4.90351L8.03563 5.79726C8.40731 5.54261 8.79775 5.3165 9.20359 5.12085L9.54688 2.7646C9.59264 2.44594 9.75256 2.15474 9.99691 1.94514C10.2413 1.73554 10.5534 1.6218 10.8753 1.62507H15.1288C15.4519 1.62412 15.7643 1.74061 16.0079 1.95285C16.2516 2.16509 16.4098 2.45863 16.4531 2.77882L16.7944 5.11882C17.2015 5.31334 17.5927 5.5395 17.9644 5.79523L20.2211 4.89538C20.522 4.78664 20.8516 4.7882 21.1515 4.89979C21.4513 5.01138 21.7017 5.22576 21.8583 5.50476L23.9688 9.14069C24.1296 9.41988 24.1849 9.74756 24.1245 10.0641C24.0641 10.3806 23.8921 10.6649 23.6397 10.8652L21.7506 12.3318C21.7689 12.5349 21.7811 12.7644 21.7811 13.0041C21.7811 13.2438 21.7689 13.4693 21.7506 13.6765L23.6356 15.141C23.8867 15.3384 24.059 15.619 24.1215 15.9322C24.1841 16.2453 24.1328 16.5706 23.9769 16.8493L21.8481 20.5157C21.6893 20.7939 21.4356 21.0056 21.1336 21.1123C20.8315 21.219 20.5011 21.2134 20.2028 21.0966L17.9684 20.2029C17.5968 20.4575 17.2063 20.6837 16.8005 20.8793L16.4531 23.2355C16.4075 23.5535 16.2481 23.8441 16.0046 24.0537C15.7611 24.2632 15.45 24.3773 15.1288 24.3751ZM11.1231 22.7501H14.883L15.3156 19.7438L15.7463 19.5691C16.3258 19.3287 16.8719 19.0146 17.3713 18.6348L17.7348 18.3626L20.5786 19.494L22.4575 16.2643L20.0505 14.3955L20.1073 13.9365C20.1982 13.3169 20.1982 12.6873 20.1073 12.0677L20.0505 11.6087L22.4575 9.73991L20.5644 6.50007L17.7206 7.63351L17.355 7.35319C16.8623 6.97275 16.3204 6.6605 15.7442 6.42491L15.3156 6.25632L14.883 3.25007H11.1231L10.6884 6.25632L10.2578 6.43101C9.67837 6.6716 9.13224 6.98563 8.63281 7.36538L8.27531 7.63757L5.43969 6.50007L3.56078 9.72976L5.96781 11.5985L5.91094 12.0576C5.86831 12.3673 5.84524 12.6793 5.84188 12.9919C5.84524 13.3045 5.86831 13.6166 5.91094 13.9263L5.96781 14.3854L3.56078 16.2541L5.43969 19.5001L8.28344 18.3666L8.64906 18.6469C9.14184 19.0273 9.68364 19.3396 10.2598 19.5752L10.6905 19.7499L11.1231 22.7501ZM20.4425 19.7032V19.7154V19.7032ZM5.56969 6.28069V6.29288V6.28069ZM13 17.5094C12.1093 17.5042 11.24 17.2353 10.502 16.7367C9.76388 16.238 9.19001 15.5319 8.85276 14.7075C8.5155 13.8831 8.42996 12.9772 8.60692 12.1043C8.78389 11.2313 9.21543 10.4302 9.84712 9.80224C10.4788 9.17423 11.2823 8.74737 12.1563 8.57551C13.0303 8.40364 13.9357 8.49447 14.7581 8.83653C15.5806 9.1786 16.2833 9.75658 16.7776 10.4976C17.272 11.2385 17.5358 12.1093 17.5358 13.0001C17.5309 14.1991 17.0507 15.3473 16.2003 16.1927C15.35 17.038 14.1991 17.5116 13 17.5094ZM13 10.1157C12.4307 10.1209 11.8756 10.2945 11.4048 10.6146C10.9339 10.9347 10.5684 11.387 10.3541 11.9144C10.1398 12.4419 10.0865 13.021 10.2007 13.5788C10.315 14.1366 10.5917 14.648 10.9962 15.0488C11.4006 15.4495 11.9146 15.7216 12.4733 15.8308C13.0321 15.94 13.6107 15.8813 14.1362 15.6623C14.6617 15.4432 15.1107 15.0735 15.4265 14.5998C15.7422 14.126 15.9108 13.5694 15.9108 13.0001C15.9065 12.2318 15.5976 11.4967 15.0519 10.9559C14.5062 10.4152 13.7682 10.113 13 10.1157Z" fill="black"/>
</svg>
