<svg width="26" height="26" viewBox="0 0 26 26" fill="none" xmlns="http://www.w3.org/2000/svg">
<path d="M12.8865 25.5494C6.5258 25.5494 1.37029 20.3947 1.37029 14.0333C1.37029 9.2188 4.32596 5.09618 8.51825 3.37632V3.37916C8.64216 3.33488 8.77582 3.31111 8.91597 3.31111C9.57207 3.31111 10.1077 3.84411 10.1077 4.50183C10.1077 5.0196 9.77621 5.46241 9.31207 5.62572V5.62654C6.04521 7.01632 3.75294 10.2574 3.75294 14.0325C3.75294 19.0773 7.84165 23.166 12.8865 23.166C17.9315 23.166 22.0202 19.0765 22.0202 14.0325C22.0202 10.2574 19.7295 7.01693 16.46 5.62654C15.9969 5.46404 15.6662 5.02122 15.6662 4.50285C15.6662 3.84493 16.199 3.31193 16.8571 3.31193C16.9957 3.31193 17.1283 3.33569 17.2541 3.37997V3.37713C21.4498 5.09719 24.402 9.21982 24.402 14.0341C24.403 20.3947 19.2465 25.5494 12.8865 25.5494ZM12.8865 13.2395C12.2296 13.2395 11.6957 12.7063 11.6957 12.0475V1.32618C11.6949 0.669879 12.2296 0.135254 12.8865 0.135254C13.5444 0.135254 14.0774 0.66927 14.0774 1.32618V12.0469C14.0776 12.7054 13.5446 13.2395 12.8865 13.2395Z" fill="#333333"/>
</svg>
