<svg width="50" height="50" viewBox="0 0 50 50" fill="none" xmlns="http://www.w3.org/2000/svg">
<g clip-path="url(#clip0_5_2433)">
<path d="M2.94116 17.6471L39.3088 38.4294C39.5901 38.5903 39.8103 38.8396 39.9353 39.1386C40.0603 39.4375 40.0831 39.7694 40.0001 40.0826C39.9171 40.3958 39.733 40.6729 39.4763 40.8707C39.2197 41.0685 38.9049 41.176 38.5809 41.1765H8.4794C7.7624 41.1767 7.07004 40.9149 6.53248 40.4404C5.99492 39.966 5.64919 39.3115 5.56028 38.6L2.94116 17.6471Z" fill="#F5C164"/>
<path d="M47.0588 17.6471L44.4397 38.6C44.3508 39.3115 44.005 39.966 43.4675 40.4404C42.9299 40.9149 42.2376 41.1767 41.5206 41.1765H11.4206C11.0963 41.1766 10.7811 41.0696 10.5239 40.872C10.2668 40.6744 10.0822 40.3974 9.99878 40.084C9.9154 39.7706 9.93795 39.4385 10.0629 39.1393C10.1879 38.84 10.4082 38.5905 10.6897 38.4294L47.0588 17.6471Z" fill="#F5C164"/>
<path d="M25 11.7646L41.1647 36.6323C41.4533 37.0762 41.6166 37.5898 41.6376 38.1189C41.6585 38.6479 41.5363 39.1728 41.2837 39.6382C41.0312 40.1035 40.6577 40.4921 40.2027 40.7628C39.7477 41.0336 39.228 41.1764 38.6985 41.1764H11.3015C10.772 41.1764 10.2523 41.0336 9.79733 40.7628C9.34232 40.4921 8.96883 40.1035 8.71627 39.6382C8.46371 39.1728 8.34146 38.6479 8.36241 38.1189C8.38336 37.5898 8.54673 37.0762 8.8353 36.6323L25 11.7646Z" fill="#FFE09E"/>
<path d="M22.0588 10.2941C22.0588 11.0741 22.3687 11.8222 22.9203 12.3738C23.4719 12.9254 24.22 13.2353 25 13.2353C25.7801 13.2353 26.5282 12.9254 27.0797 12.3738C27.6313 11.8222 27.9412 11.0741 27.9412 10.2941C27.9412 9.90784 27.8651 9.52538 27.7173 9.16854C27.5695 8.8117 27.3529 8.48747 27.0797 8.21436C26.8066 7.94124 26.4824 7.7246 26.1256 7.57679C25.7687 7.42898 25.3863 7.35291 25 7.35291C24.6138 7.35291 24.2313 7.42898 23.8745 7.57679C23.5176 7.7246 23.1934 7.94124 22.9203 8.21436C22.6472 8.48747 22.4305 8.8117 22.2827 9.16854C22.1349 9.52538 22.0588 9.90784 22.0588 10.2941Z" fill="#FFE19F"/>
<path d="M44.1177 16.1765C44.1177 16.5628 44.1938 16.9452 44.3416 17.3021C44.4894 17.6589 44.706 17.9831 44.9791 18.2563C45.2522 18.5294 45.5765 18.746 45.9333 18.8938C46.2902 19.0416 46.6726 19.1177 47.0589 19.1177C47.4451 19.1177 47.8276 19.0416 48.1844 18.8938C48.5412 18.746 48.8655 18.5294 49.1386 18.2563C49.4117 17.9831 49.6283 17.6589 49.7761 17.3021C49.924 16.9452 50 16.5628 50 16.1765C50 15.3965 49.6902 14.6484 49.1386 14.0968C48.587 13.5452 47.8389 13.2354 47.0589 13.2354C46.2788 13.2354 45.5307 13.5452 44.9791 14.0968C44.4275 14.6484 44.1177 15.3965 44.1177 16.1765Z" fill="#FFE19F"/>
<path d="M0 16.1765C0 16.9566 0.309873 17.7047 0.861451 18.2563C1.41303 18.8078 2.16113 19.1177 2.94118 19.1177C3.72123 19.1177 4.46932 18.8078 5.0209 18.2563C5.57248 17.7047 5.88235 16.9566 5.88235 16.1765C5.88235 15.3965 5.57248 14.6484 5.0209 14.0968C4.46932 13.5452 3.72123 13.2354 2.94118 13.2354C2.16113 13.2354 1.41303 13.5452 0.861451 14.0968C0.309873 14.6484 0 15.3965 0 16.1765H0Z" fill="#FFE19F"/>
</g>
<defs>
<clipPath id="clip0_5_2433">
<rect width="50" height="50" fill="white"/>
</clipPath>
</defs>
</svg>
