<svg width="50" height="50" viewBox="0 0 50 50" fill="none" xmlns="http://www.w3.org/2000/svg">
<circle cx="25" cy="25" r="25" fill="#0266FF"/>
<path d="M25.4115 30.1218V26.7862C25.6919 26.8144 25.9628 26.903 26.2057 27.0458C26.4486 27.1887 26.6577 27.3825 26.8186 27.6139C26.8377 27.6432 26.8624 27.6685 26.8913 27.6883C26.9202 27.7081 26.9528 27.722 26.987 27.7292C27.0213 27.7365 27.0567 27.7369 27.0911 27.7304C27.1256 27.724 27.1584 27.7108 27.1877 27.6917C27.2171 27.6726 27.2424 27.6478 27.2622 27.6189C27.282 27.59 27.2959 27.5575 27.3031 27.5232C27.3103 27.4889 27.3107 27.4536 27.3043 27.4191C27.2978 27.3847 27.2847 27.3519 27.2655 27.3225C27.0552 27.0182 26.7799 26.7645 26.4596 26.5795C26.1392 26.3946 25.7818 26.2831 25.4131 26.2531V25.4618C25.4131 25.3911 25.3851 25.3234 25.3351 25.2734C25.2851 25.2234 25.2173 25.1953 25.1466 25.1953C25.0759 25.1953 25.0081 25.2234 24.9581 25.2734C24.9082 25.3234 24.8801 25.3911 24.8801 25.4618V26.2515C23.6534 26.3707 22.6966 27.2944 22.6966 28.4134C22.6966 29.5971 23.7676 30.1483 24.8801 30.5158V33.8532C24.1301 33.7245 23.4283 33.3975 22.8472 32.9063C22.8221 32.8785 22.7915 32.8564 22.7573 32.8412C22.723 32.8261 22.686 32.8184 22.6486 32.8185C22.6112 32.8187 22.5742 32.8267 22.5401 32.842C22.506 32.8574 22.4755 32.8798 22.4506 32.9077C22.4257 32.9356 22.407 32.9685 22.3956 33.0042C22.3843 33.0398 22.3806 33.0774 22.3847 33.1146C22.3889 33.1518 22.4008 33.1877 22.4197 33.22C22.4387 33.2522 22.4642 33.2801 22.4946 33.3019C23.1719 33.878 23.9972 34.2525 24.8768 34.3829V35.1758C24.8768 35.2465 24.9049 35.3143 24.9548 35.3643C25.0048 35.4143 25.0726 35.4424 25.1433 35.4424C25.214 35.4424 25.2818 35.4143 25.3318 35.3643C25.3817 35.3143 25.4098 35.2465 25.4098 35.1758V34.3862C26.6365 34.267 27.5933 33.3433 27.5933 32.2242C27.595 30.9843 26.3981 30.4314 25.4115 30.1218ZM24.8784 29.9563C23.7196 29.5424 23.223 29.0855 23.223 28.4184C23.223 27.5907 23.9415 26.9054 24.8784 26.7944V29.9563ZM25.4115 33.8598V30.6847C26.5338 31.0671 27.0669 31.5621 27.0669 32.2292C27.0619 33.0569 26.3451 33.7422 25.4115 33.8532V33.8598Z" fill="#FFE09E"/>
<path d="M31.3014 26.9069C28.9193 24.5529 27.9558 22.3314 27.7274 20.416C27.8885 20.4183 28.0466 20.4604 28.1876 20.5385C28.3995 20.6644 28.5352 20.8978 28.6014 21.2487C28.6273 21.3768 28.7025 21.4896 28.8109 21.5627C28.9193 21.6357 29.0521 21.6631 29.1805 21.639C29.3089 21.6148 29.4227 21.541 29.4971 21.4336C29.5716 21.3261 29.6007 21.1937 29.5781 21.065C29.4275 20.2704 29.0153 19.8764 28.6958 19.686C28.3847 19.5076 28.0313 19.4162 27.6728 19.4211C27.6926 16.9562 28.8663 15.117 29.459 14.3539C29.5769 14.2005 29.6605 14.0236 29.7042 13.8351C29.7479 13.6466 29.7506 13.451 29.7122 13.2613C29.6745 13.0734 29.597 12.8958 29.4847 12.7404C29.3725 12.585 29.2282 12.4556 29.0617 12.3608C27.8565 11.6721 25.3519 12.0148 24.3586 13.0031C23.7229 13.6388 22.579 13.4997 21.8225 13.3954C21.657 13.3755 21.5212 13.3573 21.4037 13.3474C21.2561 13.3382 21.109 13.371 20.9793 13.4419C20.8496 13.5129 20.7427 13.6191 20.6708 13.7483C20.5989 13.8774 20.5651 14.0243 20.5732 14.1719C20.5813 14.3195 20.6311 14.4618 20.7167 14.5823C21.7167 15.9717 22.2804 17.6274 22.3357 19.3384L22.19 19.3036H22.1652C22.0182 19.2777 21.8672 19.2857 21.7237 19.327C21.5803 19.3683 21.4482 19.4418 21.3375 19.542C21.0445 19.8118 20.9302 20.2455 20.9965 20.8316C21.0074 20.8785 21.0034 20.9277 20.9849 20.9723C20.8773 21.065 20.4369 21.0633 20.0777 20.9723C19.9523 20.943 19.8204 20.9637 19.71 21.0298C19.5995 21.0959 19.519 21.2024 19.4855 21.3267C19.452 21.4511 19.4681 21.5836 19.5304 21.6962C19.5927 21.8089 19.6963 21.893 19.8195 21.9307C20.081 21.9996 20.3502 22.0358 20.6207 22.0384C20.984 22.0527 21.3406 21.9377 21.6272 21.7139C21.7649 21.5915 21.8693 21.4362 21.9307 21.2625C21.9921 21.0888 22.0084 20.9024 21.9781 20.7206C21.9504 20.577 21.9578 20.4288 21.9996 20.2886L22.2844 20.3531C22.0708 22.28 21.1074 24.5281 18.6971 26.9069C16.4391 29.1401 15.6379 31.5239 16.4424 33.6213C17.3893 36.0895 20.4469 37.8029 24.2311 37.9833C24.2739 37.9857 24.3167 37.9823 24.3586 37.9734C24.3853 37.9789 24.4125 37.9823 24.4397 37.9833C24.6604 37.9944 24.8812 37.9993 25.1019 37.9982C29.0368 37.9982 32.3493 36.366 33.4618 33.8266C34.4136 31.6795 33.6422 29.2212 31.3014 26.9069ZM21.7762 14.3903C22.6734 14.5045 24.1136 14.6602 25.0688 13.705C25.7475 13.0263 27.7456 12.7515 28.5733 13.2216C28.6161 13.2463 28.653 13.2799 28.6816 13.3202C28.7102 13.3605 28.7297 13.4065 28.7388 13.455C28.7491 13.5052 28.7485 13.5571 28.7371 13.607C28.7257 13.657 28.7037 13.7039 28.6726 13.7447C27.5789 15.1862 26.9051 16.9021 26.7259 18.7027C26.6994 19.0007 26.6911 19.297 26.6944 19.5916C25.7012 19.8433 24.2808 19.691 23.3008 19.5287C23.2864 17.7066 22.7579 15.9255 21.7762 14.3903ZM32.5629 33.4276C31.5696 35.7005 28.2422 37.1639 24.4877 36.9901H24.4646C24.4295 36.9903 24.3945 36.9941 24.3603 37.0017C24.3335 36.9961 24.3064 36.9928 24.2792 36.9917C20.8872 36.8262 18.1756 35.3678 17.3694 33.2654C16.7073 31.5338 17.4059 29.5788 19.3957 27.6121C21.9682 25.0678 23.0012 22.6326 23.2412 20.527C24.2477 20.6925 25.6482 20.8233 26.7573 20.5965C27.052 23.0217 28.3366 25.374 30.6029 27.6138C32.6357 29.6185 33.3277 31.6828 32.5612 33.4293L32.5629 33.4276Z" fill="#FFE09E"/>
</svg>
