<svg width="50" height="50" viewBox="0 0 50 50" fill="none" xmlns="http://www.w3.org/2000/svg">
<circle cx="25" cy="25" r="25" fill="#0266FF"/>
<g clip-path="url(#clip0_4_1954)">
<path d="M37.0872 32.5908H12.8331C12.3702 32.5908 11.9999 32.9611 11.9999 33.424C11.9999 33.8868 12.3702 34.2571 12.8331 34.2571H37.0872C37.5501 34.2571 37.9204 33.8868 37.9204 33.424C37.9204 32.9611 37.5501 32.5908 37.0872 32.5908ZM37.9204 16.4831V16.2979C37.9204 16.2054 37.8278 16.2054 37.8278 16.1128C37.8278 16.1128 37.8278 16.0202 37.7353 16.0202C37.7353 15.9277 37.6427 15.9277 37.5501 15.9277L37.4575 15.8351H32.366C31.8106 15.7425 31.4403 16.1128 31.4403 16.5757C31.4403 17.0385 31.8106 17.4088 32.2734 17.4088H35.0506L27.4596 24.6295L20.7018 17.6865C20.3315 17.3162 19.8687 17.3162 19.4984 17.6865L12.1851 25.2775C11.9074 25.6478 11.9074 26.1107 12.1851 26.481C12.4628 26.8513 13.0183 26.8513 13.296 26.481L20.1464 19.4454L26.9042 26.3884C27.0894 26.5736 27.2745 26.6661 27.4596 26.6661C27.6448 26.6661 27.8299 26.5736 28.0151 26.481L36.3467 18.5197V21.6672C36.3467 22.13 36.7169 22.5003 37.1798 22.5003C37.6427 22.5003 38.013 22.13 38.013 21.6672V16.5757C37.9204 16.5757 37.9204 16.4831 37.9204 16.4831Z" fill="#FFE09E"/>
</g>
<defs>
<clipPath id="clip0_4_1954">
<rect width="26" height="26" fill="white" transform="translate(12 12)"/>
</clipPath>
</defs>
</svg>
