<svg width="50" height="50" viewBox="0 0 50 50" fill="none" xmlns="http://www.w3.org/2000/svg">
<circle cx="25" cy="25" r="25" fill="#252839"/>
<g clip-path="url(#clip0_5_6725)">
<path d="M36.4699 17.2C37.3136 17.2 38 17.8864 38 18.7301V32.4919C38 33.3395 37.3136 34.0233 36.4699 34.0233H13.5301C13.3291 34.0233 13.13 33.9837 12.9443 33.9067C12.7585 33.8297 12.5898 33.7169 12.4477 33.5747C12.3056 33.4325 12.1929 33.2636 12.1161 33.0779C12.0393 32.8921 11.9998 32.693 12 32.4919V18.7301C12 17.8838 12.6864 17.2 13.5301 17.2H36.4699ZM36.4699 18.7301H13.5301V32.4919H36.4699V18.7301ZM25.7657 20.2615V21.7916H28.0576V23.323H25.767V24.8531H26.5314C27.7937 24.8531 28.8246 25.884 28.8246 27.1463C28.8246 28.4073 27.7976 29.4382 26.5314 29.4382H25.767V30.9696H24.233V29.4382H21.9424V27.9081H24.233V26.3767H23.4686C22.2063 26.3767 21.1754 25.3471 21.1754 24.0848C21.1754 22.8238 22.2024 21.7916 23.4686 21.7916H24.233V20.2615H25.7644H25.7657ZM16.5916 21.789V29.4343H15.0615V21.789H16.5916ZM34.9424 21.789V29.4343H33.411V21.789H34.9424ZM26.5314 26.378H25.7644V27.9081H26.5314C26.7268 27.8967 26.9104 27.8111 27.0447 27.6687C27.179 27.5264 27.2538 27.3381 27.2538 27.1424C27.2538 26.9467 27.179 26.7584 27.0447 26.6161C26.9104 26.4737 26.7268 26.3881 26.5314 26.3767V26.378ZM24.233 23.3178H23.4686C23.2732 23.3292 23.0896 23.4148 22.9553 23.5572C22.821 23.6995 22.7462 23.8878 22.7462 24.0835C22.7462 24.2792 22.821 24.4675 22.9553 24.6098C23.0896 24.7522 23.2732 24.8378 23.4686 24.8492H24.233V23.3191V23.3178Z" fill="white"/>
</g>
<defs>
<clipPath id="clip0_5_6725">
<rect width="26" height="26" fill="white" transform="translate(12 12)"/>
</clipPath>
</defs>
</svg>
