<svg width="50" height="50" viewBox="0 0 50 50" fill="none" xmlns="http://www.w3.org/2000/svg">
<circle cx="25" cy="25" r="25" fill="#0266FF"/>
<g clip-path="url(#clip0_4_1960)">
<path d="M16.1364 21.4545C16.4431 21.4532 16.7383 21.5711 16.9597 21.7833C17.181 21.9956 17.3112 22.2856 17.3227 22.592C17.3342 22.8985 17.2261 23.1974 17.0213 23.4257C16.8165 23.6539 16.531 23.7936 16.2251 23.8152L16.1364 23.8182C15.9917 23.8182 15.852 23.8713 15.7438 23.9675C15.6357 24.0637 15.5666 24.1962 15.5497 24.34L15.5455 24.4091V33.8636C15.5455 34.0204 15.6078 34.1707 15.7186 34.2815C15.8294 34.3923 15.9797 34.4545 16.1364 34.4545C16.2916 34.4545 16.4453 34.4851 16.5887 34.5445C16.7322 34.6038 16.8625 34.6909 16.9722 34.8006C17.082 34.9104 17.169 35.0407 17.2284 35.1841C17.2878 35.3275 17.3184 35.4812 17.3184 35.6364C17.3184 35.7916 17.2878 35.9453 17.2284 36.0887C17.169 36.2321 17.082 36.3624 16.9722 36.4721C16.8625 36.5818 16.7322 36.6689 16.5887 36.7283C16.4453 36.7877 16.2916 36.8182 16.1364 36.8182C15.3751 36.8181 14.6431 36.5242 14.0932 35.9976C13.5433 35.471 13.2179 34.7525 13.1848 33.9919L13.1819 33.8636V24.4091C13.1819 24.0211 13.2583 23.6369 13.4068 23.2784C13.5553 22.92 13.7729 22.5943 14.0473 22.3199C14.3216 22.0456 14.6473 21.8279 15.0058 21.6794C15.3642 21.531 15.7484 21.4545 16.1364 21.4545ZM25.8332 12C26.2603 12 26.6831 12.0841 27.0776 12.2475C27.4722 12.4109 27.8306 12.6505 28.1326 12.9524C28.4346 13.2544 28.6741 13.6129 28.8375 14.0074C29.0009 14.4019 29.085 14.8247 29.085 15.2518V18.9568H34.1018C36.9506 18.9568 38.0704 22.4449 36.9932 28.7883L36.9004 29.3113C35.8604 34.9763 34.2933 36.7993 31.61 36.8176H20.8637C20.4757 36.8176 20.0915 36.7412 19.733 36.5927C19.3746 36.4442 19.0489 36.2266 18.7745 35.9522C18.5002 35.6779 18.2825 35.3522 18.1341 34.9937C17.9856 34.6352 17.9092 34.251 17.9092 33.863V23.8773C17.9092 23.0979 18.1969 22.4307 18.6803 21.773C18.8127 21.5922 19.1648 21.165 19.127 21.2135L19.3374 20.9405C20.7177 19.1063 21.691 17.031 22.2594 14.7046C22.4477 13.9333 22.8895 13.2475 23.5139 12.7571C24.1383 12.2667 24.9093 12.0001 25.7032 12H25.8332ZM25.8332 14.3636H25.7032C25.4386 14.3636 25.1816 14.4524 24.9734 14.6158C24.7653 14.7792 24.618 15.0077 24.5551 15.2648C23.8797 18.032 22.6884 20.505 20.986 22.673C20.986 22.6718 20.9317 22.738 20.8619 22.8243L20.5848 23.1717C20.3721 23.4613 20.2728 23.6917 20.2728 23.8761V33.8636C20.2728 34.0204 20.3351 34.1707 20.4459 34.2815C20.5567 34.3923 20.707 34.4545 20.8637 34.4545H31.6017C32.2133 34.4504 32.4739 34.3582 32.8391 33.9221C33.5074 33.1232 34.1231 31.4433 34.6207 28.6353C35.156 25.614 35.1643 23.4926 34.7767 22.2446C34.5533 21.5249 34.3193 21.321 34.1018 21.321H26.7214V15.2518C26.7214 14.7613 26.3243 14.3636 25.8338 14.3636H25.8332Z" fill="#FFE09E"/>
</g>
<defs>
<clipPath id="clip0_4_1960">
<rect width="26" height="26" fill="white" transform="translate(12 12)"/>
</clipPath>
</defs>
</svg>
