<svg width="50" height="50" viewBox="0 0 50 50" fill="none" xmlns="http://www.w3.org/2000/svg">
<circle cx="25" cy="25" r="25" fill="#0266FF"/>
<path d="M33.2353 18.5439H32.5135C32.8795 17.9233 33.0401 17.3314 32.9888 16.7823C32.9462 16.3228 32.7284 15.6656 31.9304 15.1418C31.2687 14.7065 30.4178 14.5998 29.4738 14.8356C27.9429 15.22 26.1311 16.5414 24.9399 18.1383C23.7479 16.5414 21.9375 15.22 20.4067 14.8356C19.4619 14.5982 18.6103 14.7057 17.9487 15.1418C17.1513 15.6656 16.9335 16.3228 16.8909 16.7823C16.8396 17.3314 16.9987 17.9233 17.3662 18.5439H16.6444C15.5515 18.5439 14.6621 19.434 14.6621 20.5278V23.083C14.6621 23.9482 15.2328 24.7128 16.0584 24.9696C15.9799 25.1867 15.9388 25.4111 15.9388 25.6386V33.3046C15.9388 34.3976 16.8293 35.288 17.9223 35.288H31.9597C33.0526 35.288 33.9417 34.3976 33.9417 33.3046V25.6385C33.9417 25.4097 33.9021 25.1845 33.8236 24.9688C34.648 24.7106 35.2173 23.9459 35.2173 23.0829V20.5284C35.2173 19.4348 34.3282 18.5439 33.2353 18.5439ZM31.9597 33.8753H25.6455V25.0671H31.9597C32.2744 25.0671 32.5296 25.3238 32.5296 25.6385V33.3046C32.5296 33.6193 32.2744 33.8753 31.9597 33.8753ZM26.4231 18.5439C27.4273 17.3856 28.7453 16.4754 29.8156 16.2069C30.3716 16.0675 30.8263 16.1057 31.1557 16.3228C31.5057 16.5527 31.5679 16.7577 31.5819 16.9126C31.6376 17.4803 31.0288 18.2457 30.7413 18.5439H26.4231ZM33.8045 20.5284V23.083C33.8045 23.3977 33.55 23.6536 33.2353 23.6536H25.6455V19.9574H33.2353C33.55 19.9574 33.8045 20.2138 33.8045 20.5284ZM24.2335 25.0671V33.8753H17.9222C17.6068 33.8753 17.3515 33.6193 17.3515 33.3046V25.6385C17.3515 25.3238 17.6068 25.0671 17.9222 25.0671H24.2335ZM18.2978 16.9126C18.3117 16.7577 18.3748 16.5527 18.7233 16.3228C19.0504 16.1057 19.5052 16.0657 20.0642 16.2069C21.1285 16.4739 22.4451 17.3842 23.4515 18.5439H19.137C18.8795 18.2832 18.2413 17.4939 18.2978 16.9126ZM16.0738 20.5284C16.0738 20.2138 16.329 19.9574 16.6444 19.9574H24.2334V23.6536H16.6444C16.329 23.6536 16.0738 23.3977 16.0738 23.083V20.5284Z" fill="#FFE09E"/>
</svg>
