<svg width="50" height="50" viewBox="0 0 50 50" fill="none" xmlns="http://www.w3.org/2000/svg">
<circle cx="25" cy="25" r="25" fill="#252839"/>
<path d="M37.4699 19.6652C37.1571 19.3425 36.7324 19.1859 36.1694 19.1859H15.848C15.5649 19.1859 15.2554 19.0326 14.9953 18.7642C14.7714 18.5341 14.6331 18.1666 14.6331 17.8023C14.6331 17.47 14.7516 17.1856 14.9953 16.9332C15.1862 16.7351 15.4595 16.6424 15.8513 16.6424H19.9143C20.362 16.6424 20.7308 16.275 20.7308 15.8212C20.7308 15.3675 20.3653 15 19.9143 15H15.848C15.0381 15 14.34 15.278 13.8264 15.8052C13.3227 16.3229 13.0461 16.9332 13.0066 17.617H13V32.9388C13 33.7377 13.3095 34.5333 13.8264 35.0669C14.4125 35.6709 15.1303 36 15.848 36H36.1694C36.6171 36 37.0781 35.7763 37.4699 35.3705C37.7959 35.0318 38 34.5014 38 33.9805V20.9019C38 20.4289 37.8321 20.0359 37.4699 19.6652ZM36.3702 33.9837C36.3702 34.0828 36.3274 34.201 36.3044 34.2234C36.2122 34.3192 36.1694 34.348 36.1562 34.3576H15.848C15.476 34.3576 15.1533 34.0828 14.992 33.9166C14.7714 33.6897 14.6298 33.3063 14.6298 32.9356V20.4992C15.0249 20.7165 15.4332 20.8284 15.8447 20.8284H36.3175C36.3373 20.8507 36.3636 20.8763 36.3702 20.8859V33.9837ZM33.5288 16.6424H33.779C33.7988 16.6648 33.8251 16.6904 33.8317 16.6999V17.4988C33.8317 17.9525 34.1972 18.32 34.6482 18.32C35.096 18.32 35.4615 17.9525 35.4615 17.4988V16.7191C35.4615 16.243 35.2936 15.85 34.9314 15.4793C34.6186 15.1566 34.1939 15 33.6308 15H33.5288C33.0777 15 32.7122 15.3675 32.7122 15.8212C32.7122 16.2718 33.0777 16.6424 33.5288 16.6424Z" fill="white"/>
<path d="M18.6878 19.0349L26.2979 13.7537C26.3201 13.7435 26.3423 13.7368 26.3677 13.7368C26.3899 13.7368 26.4089 13.7401 26.4311 13.7503C26.4818 13.7706 26.5198 13.8145 26.542 13.8753L26.5483 13.8922L29.0016 18.7004L30.4437 18.0111L27.9873 13.1928C27.8003 12.7028 27.4358 12.3109 26.9857 12.125C26.7892 12.0405 26.58 12 26.3677 12C26.0951 12 25.8193 12.071 25.5784 12.2095L25.5658 12.2163L18 17.4637L18.6878 19.0349ZM31.1157 31.0943H26.4216C25.9334 31.0943 25.5404 31.52 25.5404 32.0471C25.5404 32.5709 25.9366 33 26.4216 33H31.1157C31.6038 33 32 32.5743 32 32.0471C31.9968 31.5234 31.6006 31.0943 31.1157 31.0943Z" fill="white"/>
</svg>
