<svg width="50" height="50" viewBox="0 0 50 50" fill="none" xmlns="http://www.w3.org/2000/svg">
<circle cx="25" cy="25" r="25" fill="#0266FF"/>
<path d="M14.5392 29.9718C14.2148 29.9718 13.8905 29.7285 13.8094 29.323C13.7283 28.9176 14.0527 28.5121 14.4581 28.431C22.4861 27.0525 29.6222 21.6194 33.3524 13.9157C33.4335 13.6724 33.5956 13.4291 33.6767 13.1859C33.8389 12.7804 34.3255 12.6182 34.6498 12.7804C35.0553 12.9426 35.2175 13.4291 35.0553 13.7535C34.9742 13.9968 34.812 14.2401 34.7309 14.4833C30.7575 22.5925 23.216 28.3499 14.7014 29.8907C14.6203 29.9718 14.5392 29.9718 14.5392 29.9718Z" fill="#C5A960"/>
<path d="M35.4608 16.9973C35.1364 16.9973 34.812 16.754 34.731 16.3485L34.0011 12.9427C33.92 12.5372 34.1633 12.1318 34.5688 12.0507C34.9742 11.9696 35.3797 12.2129 35.4608 12.6183L36.1906 16.1053C36.2717 16.5107 36.0284 16.9162 35.623 16.9973H35.4608Z" fill="#C5A960"/>
<path d="M31.5684 14.5646C31.244 14.5646 30.9197 14.3214 30.8386 13.997C30.6764 13.5915 30.9197 13.1861 31.3251 13.0239L34.5688 12.0508C34.9742 11.8886 35.3797 12.1319 35.5419 12.5373C35.704 12.9428 35.4608 13.3483 35.0553 13.5104L31.8117 14.4835C31.7306 14.4835 31.6495 14.5646 31.5684 14.5646ZM34.5688 38C34.1633 38 33.8389 37.6756 33.8389 37.2702V20.8897C33.8389 20.4843 34.1633 20.1599 34.5688 20.1599C34.9742 20.1599 35.2986 20.4843 35.2986 20.8897V37.2702C35.2986 37.6756 34.9742 38 34.5688 38ZM28.1626 38C27.7571 38 27.4327 37.6756 27.4327 37.2702V27.296C27.4327 26.8905 27.7571 26.5661 28.1626 26.5661C28.568 26.5661 28.8924 26.8905 28.8924 27.296V37.2702C28.9735 37.6756 28.6491 38 28.1626 38ZM21.8374 38C21.432 38 21.1076 37.6756 21.1076 37.2702V31.9182C21.1076 31.5127 21.432 31.1883 21.8374 31.1883C22.2429 31.1883 22.5673 31.5127 22.5673 31.9182V37.2702C22.5673 37.6756 22.2429 38 21.8374 38ZM15.4312 38C15.0258 38 14.7014 37.6756 14.7014 37.2702V33.7833C14.7014 33.3778 15.0258 33.0534 15.4312 33.0534C15.8367 33.0534 16.1611 33.3778 16.1611 33.7833V37.2702C16.1611 37.6756 15.8367 38 15.4312 38Z" fill="#C5A960"/>
</svg>
