<svg width="50" height="50" viewBox="0 0 50 50" fill="none" xmlns="http://www.w3.org/2000/svg">
<circle cx="25" cy="25" r="25" fill="#252839"/>
<g clip-path="url(#clip0_5_6712)">
<path d="M31.5 21.75C30.603 21.75 29.875 22.478 29.875 23.375C29.875 24.272 30.603 25 31.5 25C32.397 25 33.125 24.272 33.125 23.375C33.125 22.478 32.397 21.75 31.5 21.75ZM25 33.125C24.051 33.125 23.1345 33.0145 22.2537 32.8268L18.4285 35.1262L18.4797 31.357C15.5474 29.5939 13.625 26.6786 13.625 23.375C13.625 17.9906 18.7178 13.625 25 13.625C31.2822 13.625 36.375 17.9906 36.375 23.375C36.375 28.7603 31.2822 33.125 25 33.125ZM25 12C17.8207 12 12 17.0936 12 23.375C12 26.9654 13.9053 30.1626 16.875 32.2467V38L22.5698 34.5444C23.3579 34.6744 24.1688 34.75 25 34.75C32.1793 34.75 38 29.6572 38 23.375C38 17.0936 32.1793 12 25 12ZM18.5 21.75C17.603 21.75 16.875 22.478 16.875 23.375C16.875 24.272 17.603 25 18.5 25C19.397 25 20.125 24.272 20.125 23.375C20.125 22.478 19.397 21.75 18.5 21.75ZM25 21.75C24.103 21.75 23.375 22.478 23.375 23.375C23.375 24.272 24.103 25 25 25C25.897 25 26.625 24.272 26.625 23.375C26.625 22.478 25.897 21.75 25 21.75Z" fill="white"/>
</g>
<defs>
<clipPath id="clip0_5_6712">
<rect width="26" height="26" fill="white" transform="translate(12 12)"/>
</clipPath>
</defs>
</svg>
