<svg width="50" height="50" viewBox="0 0 50 50" fill="none" xmlns="http://www.w3.org/2000/svg">
<circle cx="25" cy="25" r="25" fill="#252839"/>
<path d="M35.3061 15.7386H15.2504C14.4356 15.7386 13.7729 16.4007 13.7729 17.2145V31.6226C13.7729 32.4363 14.4356 33.0985 15.2504 33.0985H35.3061C36.122 33.0985 36.783 32.4364 36.783 31.6226V17.2145C36.783 16.4007 36.122 15.7386 35.3061 15.7386ZM35.6895 31.6226C35.6895 31.832 35.5175 32.0049 35.3061 32.0049H15.2504C15.0395 32.0049 14.8665 31.832 14.8665 31.6226V17.2145C14.8665 17.0052 15.0395 16.8322 15.2504 16.8322H35.3061C35.5176 16.8322 35.6895 17.0052 35.6895 17.2145V31.6226H35.6895Z" fill="white"/>
<path d="M22.9868 24.976C23.7888 24.363 24.3174 23.4062 24.3174 22.3233C24.3174 20.478 22.817 18.9765 20.9727 18.9765C19.1284 18.9765 17.628 20.478 17.628 22.3233C17.628 23.4062 18.1561 24.363 18.9586 24.976C17.171 25.7556 15.9156 27.5368 15.9156 29.6107C15.9156 29.9118 16.1597 30.1574 16.4624 30.1574C16.7641 30.1574 17.0092 29.9118 17.0092 29.6107C17.0092 27.4599 18.7312 25.7128 20.867 25.6573C20.9033 25.6573 20.9364 25.668 20.9727 25.668C21.009 25.668 21.0421 25.6573 21.0773 25.6573C23.2152 25.7129 24.9367 27.4599 24.9367 29.6107C24.9367 29.9118 25.1813 30.1574 25.4835 30.1574C25.7857 30.1574 26.0303 29.9118 26.0303 29.6107C26.0303 27.5368 24.7744 25.7556 22.9868 24.976ZM18.7216 22.3233C18.7216 21.0803 19.7307 20.07 20.9728 20.07C22.2136 20.07 23.2239 21.0803 23.2239 22.3233C23.2239 23.5279 22.2692 24.5061 21.0774 24.5638C21.0422 24.5616 21.0091 24.5531 20.9728 24.5531C20.9365 24.5531 20.9034 24.5616 20.8671 24.5638C19.6752 24.5061 18.7216 23.5279 18.7216 22.3233Z" fill="white"/>
<path d="M33.5024 19.9761H26.1904C25.8872 19.9761 25.6437 20.2217 25.6437 20.5229C25.6437 20.824 25.8872 21.0696 26.1904 21.0696H33.5024C33.8046 21.0696 34.0491 20.824 34.0491 20.5229C34.0491 20.2217 33.8046 19.9761 33.5024 19.9761Z" fill="white"/>
<path d="M33.5024 23.3485H26.1904C25.8872 23.3485 25.6437 23.592 25.6437 23.8953C25.6437 24.1964 25.8872 24.4421 26.1904 24.4421H33.5024C33.8046 24.4421 34.0491 24.1964 34.0491 23.8953C34.0491 23.592 33.8046 23.3485 33.5024 23.3485Z" fill="white"/>
<path d="M33.5024 26.7209H27.2841C26.9808 26.7209 26.7373 26.9644 26.7373 27.2677C26.7373 27.5689 26.9808 27.8145 27.2841 27.8145H33.5024C33.8047 27.8145 34.0492 27.5689 34.0492 27.2677C34.0492 26.9645 33.8047 26.7209 33.5024 26.7209Z" fill="white"/>
</svg>
