<svg width="26" height="26" viewBox="0 0 26 26" fill="none" xmlns="http://www.w3.org/2000/svg">
<path d="M23.9596 0.14293C23.8101 0.0467478 23.2707 -0.221004 22.6313 0.380787L22.3934 0.605646C20.7258 2.19136 19.6249 3.23767 13.5043 1.17884C11.9051 0.63213 10.2191 0.383227 8.53012 0.444476C7.20436 0.496466 5.8916 0.75122 4.62563 1.19834C2.46282 1.96 1.18255 3.02581 1.12926 3.07C1.08294 3.10908 1.04148 3.1536 1.00578 3.20257C0.852196 3.2985 0.738422 3.44667 0.685404 3.61981C0.632385 3.79296 0.64369 3.97943 0.717237 4.1449L10.1899 25.5481C10.2294 25.639 10.2865 25.7212 10.3579 25.7899C10.4293 25.8586 10.5135 25.9125 10.6059 25.9486C10.6982 25.9846 10.7967 26.002 10.8958 25.9998C10.9948 25.9975 11.0925 25.9757 11.1831 25.9356C11.2737 25.8955 11.3555 25.8379 11.4237 25.766C11.4919 25.6942 11.5453 25.6095 11.5807 25.517C11.616 25.4244 11.6328 25.3258 11.6299 25.2267C11.627 25.1277 11.6045 25.0302 11.5638 24.9398L7.17446 15.0187L7.24725 14.8784C8.24417 12.9755 9.37237 10.8192 15.1732 11.3339C16.2942 11.4348 17.4215 11.2272 18.433 10.7334C19.3273 10.3058 20.1786 9.6598 20.9637 8.81106C22.1932 7.4853 23.2772 5.62274 23.9362 3.70298C24.1884 2.97122 24.3547 2.29404 24.4197 1.74424C24.4795 1.22433 24.4977 0.491267 23.9596 0.14423V0.14293ZM22.357 3.64969C21.7955 5.11583 20.9858 6.50008 20.0772 7.54899C18.6293 9.21918 17.0241 9.98994 15.3058 9.83657C12.3371 9.57402 10.1171 9.95225 8.51712 10.9934C7.49941 11.6562 6.87422 12.492 6.4063 13.2848L2.31985 4.05262C3.20086 3.43409 4.16485 2.94312 5.18323 2.59429C7.73596 1.70915 10.3745 1.71175 13.026 2.60338C16.1636 3.66009 18.3875 4.01103 20.0226 3.71078C21.2444 3.48722 22.0698 2.92053 22.7911 2.28754C22.6748 2.75016 22.5299 3.20509 22.357 3.64969Z" fill="#333333"/>
</svg>
