<svg width="50" height="50" viewBox="0 0 50 50" fill="none" xmlns="http://www.w3.org/2000/svg">
<circle cx="25" cy="25" r="25" fill="#252839"/>
<path d="M21.5767 36.0741H16.3333C15.5995 36.0728 14.896 35.7807 14.3771 35.2618C13.8582 34.7429 13.5661 34.0394 13.5648 33.3056V16.6945C13.5661 15.9606 13.8582 15.2571 14.3771 14.7382C14.896 14.2193 15.5995 13.9272 16.3333 13.9259H31.0041C31.7384 13.9272 32.4423 14.2191 32.962 14.7379C33.4817 15.2567 33.7749 15.9601 33.7774 16.6945V21.5478C33.7774 21.8032 33.676 22.0481 33.4954 22.2287C33.3148 22.4093 33.0698 22.5107 32.8144 22.5107C32.5591 22.5107 32.3141 22.4093 32.1335 22.2287C31.9529 22.0481 31.8515 21.8032 31.8515 21.5478V16.6945C31.8502 16.4705 31.7604 16.2562 31.6016 16.0984C31.4428 15.9405 31.228 15.8519 31.0041 15.8519H16.3333C16.2219 15.8506 16.1113 15.8714 16.0079 15.9132C15.9046 15.955 15.8106 16.0168 15.7313 16.0952C15.652 16.1736 15.5891 16.2669 15.5462 16.3698C15.5032 16.4726 15.4811 16.583 15.4811 16.6945V33.3056C15.4811 33.417 15.5032 33.5274 15.5462 33.6302C15.5891 33.7331 15.652 33.8264 15.7313 33.9048C15.8106 33.9832 15.9046 34.045 16.0079 34.0868C16.1113 34.1286 16.2219 34.1494 16.3333 34.1482H21.5767C21.8321 34.1482 22.077 34.2496 22.2576 34.4302C22.4382 34.6108 22.5396 34.8557 22.5396 35.1111C22.5396 35.3665 22.4382 35.6114 22.2576 35.792C22.077 35.9726 21.8321 36.0741 21.5767 36.0741Z" fill="white"/>
<path d="M30.0459 37.037C28.8079 37.037 27.5978 36.6699 26.5684 35.9822C25.5391 35.2944 24.7368 34.3168 24.2631 33.1731C23.7893 32.0294 23.6654 30.7708 23.9069 29.5567C24.1484 28.3425 24.7445 27.2272 25.6199 26.3518C26.4953 25.4764 27.6106 24.8803 28.8248 24.6388C30.0389 24.3973 31.2975 24.5212 32.4412 24.995C33.5849 25.4687 34.5625 26.271 35.2503 27.3003C35.938 28.3297 36.3051 29.5398 36.3051 30.7778C36.3051 32.4378 35.6457 34.0299 34.4718 35.2038C33.298 36.3776 31.7059 37.037 30.0459 37.037ZM30.0459 26.4445C29.1888 26.4445 28.351 26.6986 27.6384 27.1748C26.9258 27.6509 26.3704 28.3277 26.0424 29.1195C25.7144 29.9113 25.6286 30.7826 25.7958 31.6232C25.963 32.4638 26.3757 33.2359 26.9818 33.8419C27.5878 34.4479 28.3599 34.8607 29.2005 35.0279C30.0411 35.1951 30.9124 35.1092 31.7042 34.7813C32.496 34.4533 33.1728 33.8979 33.6489 33.1853C34.1251 32.4726 34.3792 31.6348 34.3792 30.7778C34.3792 29.6285 33.9227 28.5263 33.11 27.7137C32.2974 26.901 31.1952 26.4445 30.0459 26.4445Z" fill="white"/>
<path d="M31.4904 31.9815H29.5645C29.3746 31.979 29.1934 31.9018 29.06 31.7666C28.9266 31.6314 28.8519 31.4492 28.8519 31.2593V28.8519C28.8519 28.6603 28.928 28.4766 29.0634 28.3412C29.1989 28.2057 29.3826 28.1296 29.5741 28.1296C29.7656 28.1296 29.9493 28.2057 30.0848 28.3412C30.2202 28.4766 30.2963 28.6603 30.2963 28.8519V30.5371H31.5C31.6916 30.5371 31.8753 30.6131 32.0107 30.7486C32.1462 30.884 32.2222 31.0677 32.2222 31.2593C32.2222 31.4508 32.1462 31.6345 32.0107 31.77C31.8753 31.9054 31.6916 31.9815 31.5 31.9815H31.4904ZM28.2404 20.6667H19.0922C18.8369 20.6667 18.5919 20.5652 18.4113 20.3846C18.2307 20.204 18.1293 19.9591 18.1293 19.7037C18.1293 19.4483 18.2307 19.2034 18.4113 19.0228C18.5919 18.8422 18.8369 18.7408 19.0922 18.7408H28.2404C28.4958 18.7408 28.7407 18.8422 28.9213 19.0228C29.1019 19.2034 29.2034 19.4483 29.2034 19.7037C29.2034 19.9591 29.1019 20.204 28.9213 20.3846C28.7407 20.5652 28.4958 20.6667 28.2404 20.6667ZM21.8608 26.4445H18.9719C18.7165 26.4445 18.4715 26.343 18.291 26.1624C18.1104 25.9818 18.0089 25.7369 18.0089 25.4815C18.0089 25.2261 18.1104 24.9812 18.291 24.8006C18.4715 24.62 18.7165 24.5185 18.9719 24.5185H21.8608C22.1162 24.5185 22.3611 24.62 22.5417 24.8006C22.7223 24.9812 22.8237 25.2261 22.8237 25.4815C22.8237 25.7369 22.7223 25.9818 22.5417 26.1624C22.3611 26.343 22.1162 26.4445 21.8608 26.4445Z" fill="white"/>
</svg>
