<svg width="26" height="26" viewBox="0 0 26 26" fill="none" xmlns="http://www.w3.org/2000/svg">
<path d="M12.473 15.6966L17.8412 10.3285C18.1982 9.97149 18.777 9.97149 19.1339 10.3285C19.4909 10.6854 19.4909 11.2642 19.1339 11.6211L13.1193 17.6356C12.7624 17.9926 12.1836 17.9926 11.8266 17.6356L8.11022 13.9192C7.75323 13.5622 7.75323 12.9835 8.11022 12.6265C8.46716 12.2696 9.04592 12.2696 9.40286 12.6265L12.473 15.6966H12.473ZM4.875 15.2525C4.875 16.6163 5.52609 17.9598 6.87215 19.2835C8.22649 20.6154 10.2681 21.9087 13.0003 23.1506C15.7325 21.9087 17.7741 20.6154 19.1285 19.2835C20.4745 17.9598 21.1256 16.6163 21.1256 15.2525V5.84287C18.2529 5.41132 15.4924 4.42203 12.9995 2.93074C10.5018 4.41046 7.74407 5.39854 4.875 5.84165V15.2525ZM4.28502 3.67035C7.01935 3.28231 9.64721 2.34629 12.0111 0.918359L13.0053 0.317871L13.9967 0.922752C16.3506 2.35892 18.9754 3.29389 21.7072 3.66918L23.36 3.89617V15.2525C23.36 17.2643 22.4418 19.159 20.6951 20.8766C19.1065 22.4389 16.8061 23.8877 13.7858 25.2476L13.0003 25.6013L12.2148 25.2476C9.19445 23.8877 6.89411 22.4389 5.30547 20.8766C3.55885 19.159 2.64062 17.2643 2.64062 15.2525V3.90366L4.28502 3.67035Z" fill="#333333"/>
</svg>
