<svg width="26" height="26" viewBox="0 0 26 26" fill="none" xmlns="http://www.w3.org/2000/svg">
<path d="M13 1.625C6.71836 1.625 1.625 6.71836 1.625 13C1.625 19.2816 6.71836 24.375 13 24.375C19.2816 24.375 24.375 19.2816 24.375 13C24.375 6.71836 19.2816 1.625 13 1.625ZM13 22.4453C7.78477 22.4453 3.55469 18.2152 3.55469 13C3.55469 7.78477 7.78477 3.55469 13 3.55469C18.2152 3.55469 22.4453 7.78477 22.4453 13C22.4453 18.2152 18.2152 22.4453 13 22.4453Z" fill="black"/>
<path d="M15.8336 8.04121C15.0719 7.37344 14.0664 7.00781 13 7.00781C11.9336 7.00781 10.9281 7.37598 10.1664 8.04121C9.37422 8.73438 8.9375 9.66621 8.9375 10.6641V10.857C8.9375 10.9688 9.02891 11.0602 9.14063 11.0602H10.3594C10.4711 11.0602 10.5625 10.9688 10.5625 10.857V10.6641C10.5625 9.54434 11.6568 8.63281 13 8.63281C14.3432 8.63281 15.4375 9.54434 15.4375 10.6641C15.4375 11.4537 14.8789 12.1773 14.0131 12.51C13.4748 12.7156 13.0178 13.0762 12.6902 13.5484C12.3576 14.0309 12.185 14.6098 12.185 15.1963V15.7422C12.185 15.8539 12.2764 15.9453 12.3881 15.9453H13.6068C13.7186 15.9453 13.81 15.8539 13.81 15.7422V15.1658C13.81 14.6656 14.1248 14.2086 14.5945 14.0283C16.0926 13.452 17.06 12.1316 17.06 10.6641C17.0625 9.66621 16.6258 8.73438 15.8336 8.04121ZM11.9844 18.5859C11.9844 18.8553 12.0914 19.1136 12.2818 19.3041C12.4723 19.4946 12.7306 19.6016 13 19.6016C13.2694 19.6016 13.5277 19.4946 13.7182 19.3041C13.9086 19.1136 14.0156 18.8553 14.0156 18.5859C14.0156 18.3166 13.9086 18.0582 13.7182 17.8678C13.5277 17.6773 13.2694 17.5703 13 17.5703C12.7306 17.5703 12.4723 17.6773 12.2818 17.8678C12.0914 18.0582 11.9844 18.3166 11.9844 18.5859Z" fill="black"/>
</svg>
