<svg width="26" height="26" viewBox="0 0 26 26" fill="none" xmlns="http://www.w3.org/2000/svg">
<path d="M22.1609 20.6275H21.1859V7.9627C21.1859 7.82051 21.1047 7.68848 20.9828 7.62754L15.3969 4.70255C15.1328 4.56036 14.8179 4.75333 14.8179 5.0377V20.6275H14.1375V2.82364C14.1375 2.55958 13.8633 2.37676 13.6094 2.46817L5.0781 5.51504C4.92576 5.56583 4.82419 5.71817 4.82419 5.87051V20.6174H3.39216C3.17888 20.6174 3.00623 20.8205 3.00623 21.0744V21.9783C3.00623 22.2322 3.17888 22.4354 3.39216 22.4354H22.1609C22.3742 22.4354 22.5469 22.2322 22.5469 21.9783V21.0744C22.557 20.8307 22.3844 20.6275 22.1609 20.6275ZM16.8187 8.11505C16.8187 7.8002 17.0828 7.53614 17.4078 7.53614H18.4437C18.7687 7.53614 19.0328 7.79005 19.0328 8.11505V8.50098C19.0328 8.81583 18.7687 9.07989 18.4437 9.07989H17.4078C17.0828 9.07989 16.8187 8.82598 16.8187 8.50098V8.11505ZM16.8187 10.4205C16.8187 10.1057 17.0828 9.84161 17.4078 9.84161H18.4437C18.7687 9.84161 19.0328 10.0955 19.0328 10.4205V10.8065C19.0328 11.1213 18.7687 11.3854 18.4437 11.3854H17.4078C17.0828 11.3854 16.8187 11.1315 16.8187 10.8065V10.4205ZM16.8187 12.726C16.8187 12.4111 17.0828 12.1471 17.4078 12.1471H18.4437C18.7687 12.1471 19.0328 12.401 19.0328 12.726V13.1119C19.0328 13.4268 18.7687 13.6908 18.4437 13.6908H17.4078C17.0828 13.6908 16.8187 13.4369 16.8187 13.1119V12.726ZM16.8187 15.0822C16.8187 14.7674 17.0828 14.5033 17.4078 14.5033H18.4437C18.7687 14.5033 19.0328 14.7572 19.0328 15.0822V15.4682C19.0328 15.783 18.7687 16.0471 18.4437 16.0471H17.4078C17.0828 16.0471 16.8187 15.7932 16.8187 15.4682V15.0822ZM16.8187 17.3166C16.8187 17.0018 17.0828 16.7377 17.4078 16.7377H18.4437C18.7687 16.7377 19.0328 16.9916 19.0328 17.3166V17.7025C19.0328 18.0174 18.7687 18.2815 18.4437 18.2815H17.4078C17.0828 18.2815 16.8187 18.0275 16.8187 17.7025V17.3166ZM10.1461 5.87051C10.1461 5.55567 10.4101 5.29161 10.7351 5.29161H11.7711C12.0961 5.29161 12.3601 5.54551 12.3601 5.87051V6.25645C12.3601 6.57129 12.0961 6.83536 11.7711 6.83536H10.7351C10.4101 6.83536 10.1461 6.58145 10.1461 6.25645V5.87051ZM10.1461 8.11505C10.1461 7.8002 10.4101 7.53614 10.7351 7.53614H11.7711C12.0961 7.53614 12.3601 7.79005 12.3601 8.11505V8.50098C12.3601 8.81583 12.0961 9.07989 11.7711 9.07989H10.7351C10.4101 9.07989 10.1461 8.82598 10.1461 8.50098V8.11505ZM10.1461 10.4205C10.1461 10.1057 10.4101 9.84161 10.7351 9.84161H11.7711C12.0961 9.84161 12.3601 10.0955 12.3601 10.4205V10.8065C12.3601 11.1213 12.0961 11.3854 11.7711 11.3854H10.7351C10.4101 11.3854 10.1461 11.1315 10.1461 10.8065V10.4205ZM10.1461 12.726C10.1461 12.4111 10.4101 12.1471 10.7351 12.1471H11.7711C12.0961 12.1471 12.3601 12.401 12.3601 12.726V13.1119C12.3601 13.4268 12.0961 13.6908 11.7711 13.6908H10.7351C10.4101 13.6908 10.1461 13.4369 10.1461 13.1119V12.726ZM10.1461 15.0822C10.1461 14.7674 10.4101 14.5033 10.7351 14.5033H11.7711C12.0961 14.5033 12.3601 14.7572 12.3601 15.0822V15.4682C12.3601 15.783 12.0961 16.0471 11.7711 16.0471H10.7351C10.4101 16.0471 10.1461 15.7932 10.1461 15.4682V15.0822ZM10.1461 17.3166C10.1461 17.0018 10.4101 16.7377 10.7351 16.7377H11.7711C12.0961 16.7377 12.3601 16.9916 12.3601 17.3166V17.7025C12.3601 18.0174 12.0961 18.2815 11.7711 18.2815H10.7351C10.4101 18.2815 10.1461 18.0275 10.1461 17.7025V17.3166ZM6.65232 8.11505C6.65232 7.8002 6.91638 7.53614 7.24138 7.53614H8.27732C8.60232 7.53614 8.86638 7.79005 8.86638 8.11505V8.50098C8.86638 8.81583 8.60232 9.07989 8.27732 9.07989H7.24138C6.91638 9.07989 6.65232 8.82598 6.65232 8.50098V8.11505ZM6.65232 10.4205C6.65232 10.1057 6.91638 9.84161 7.24138 9.84161H8.27732C8.60232 9.84161 8.86638 10.0955 8.86638 10.4205V10.8065C8.86638 11.1213 8.60232 11.3854 8.27732 11.3854H7.24138C6.91638 11.3854 6.65232 11.1315 6.65232 10.8065V10.4205ZM6.65232 12.726C6.65232 12.4111 6.91638 12.1471 7.24138 12.1471H8.27732C8.60232 12.1471 8.86638 12.401 8.86638 12.726V13.1119C8.86638 13.4268 8.60232 13.6908 8.27732 13.6908H7.24138C6.91638 13.6908 6.65232 13.4369 6.65232 13.1119V12.726ZM6.65232 15.0822C6.65232 14.7674 6.91638 14.5033 7.24138 14.5033H8.27732C8.60232 14.5033 8.86638 14.7572 8.86638 15.0822V15.4682C8.86638 15.783 8.60232 16.0471 8.27732 16.0471H7.24138C6.91638 16.0471 6.65232 15.7932 6.65232 15.4682V15.0822ZM6.65232 17.3166C6.65232 17.0018 6.91638 16.7377 7.24138 16.7377H8.27732C8.60232 16.7377 8.86638 16.9916 8.86638 17.3166V17.7025C8.86638 18.0174 8.60232 18.2815 8.27732 18.2815H7.24138C6.91638 18.2815 6.65232 18.0275 6.65232 17.7025V17.3166Z" fill="#5EEEE5"/>
<path d="M2.23438 21.5312C2.23438 21.7737 2.33068 22.0062 2.5021 22.1776C2.67352 22.349 2.90601 22.4453 3.14844 22.4453C3.39086 22.4453 3.62336 22.349 3.79478 22.1776C3.9662 22.0062 4.0625 21.7737 4.0625 21.5312C4.0625 21.2888 3.9662 21.0563 3.79478 20.8849C3.62336 20.7135 3.39086 20.6172 3.14844 20.6172C2.90601 20.6172 2.67352 20.7135 2.5021 20.8849C2.33068 21.0563 2.23438 21.2888 2.23438 21.5312Z" fill="#5EEEE5"/>
<path d="M21.5312 21.5312C21.5312 21.7737 21.6276 22.0062 21.799 22.1776C21.9704 22.349 22.2029 22.4453 22.4453 22.4453C22.6877 22.4453 22.9202 22.349 23.0917 22.1776C23.2631 22.0062 23.3594 21.7737 23.3594 21.5312C23.3594 21.2888 23.2631 21.0563 23.0917 20.8849C22.9202 20.7135 22.6877 20.6172 22.4453 20.6172C22.2029 20.6172 21.9704 20.7135 21.799 20.8849C21.6276 21.0563 21.5313 21.2888 21.5312 21.5312Z" fill="#5EEEE5"/>
<path d="M3.04688 20.6172H22.4453V22.4453H3.04688V20.6172Z" fill="#5EEEE5"/>
</svg>
