<svg width="187" height="60" viewBox="0 0 187 60" fill="none" xmlns="http://www.w3.org/2000/svg">
<rect width="187" height="60" rx="5" fill="white"/>
<path d="M21.25 47.7083V12.2917C21.25 11.0625 21.9583 9.97916 23 9.47916L43.5208 30L23 50.5208C21.9583 50 21.25 48.9375 21.25 47.7083ZM50.0208 36.5L27.6042 49.4583L45.2917 31.7708L50.0208 36.5ZM57 27.5208C57.7083 28.0833 58.2292 28.9583 58.2292 30C58.2292 31.0417 57.7708 31.875 57.0417 32.4583L52.2708 35.2083L47.0625 30L52.2708 24.7917L57 27.5208ZM27.6042 10.5417L50.0208 23.5L45.2917 28.2292L27.6042 10.5417Z" fill="#17263C"/>
<path d="M78.9453 21.6309V20.623L82.584 20.6172V23.8047C82.0254 24.25 81.4492 24.5859 80.8555 24.8125C80.2617 25.0352 79.6523 25.1465 79.0273 25.1465C78.1836 25.1465 77.416 24.9668 76.7246 24.6074C76.0371 24.2441 75.5176 23.7207 75.166 23.0371C74.8145 22.3535 74.6387 21.5898 74.6387 20.7461C74.6387 19.9102 74.8125 19.1309 75.1602 18.4082C75.5117 17.6816 76.0156 17.1426 76.6719 16.791C77.3281 16.4395 78.084 16.2637 78.9395 16.2637C79.5605 16.2637 80.1211 16.3652 80.6211 16.5684C81.125 16.7676 81.5195 17.0469 81.8047 17.4062C82.0898 17.7656 82.3066 18.2344 82.4551 18.8125L81.4297 19.0938C81.3008 18.6562 81.1406 18.3125 80.9492 18.0625C80.7578 17.8125 80.4844 17.6133 80.1289 17.4648C79.7734 17.3125 79.3789 17.2363 78.9453 17.2363C78.4258 17.2363 77.9766 17.3164 77.5977 17.4766C77.2188 17.6328 76.9121 17.8398 76.6777 18.0977C76.4473 18.3555 76.2676 18.6387 76.1387 18.9473C75.9199 19.4785 75.8105 20.0547 75.8105 20.6758C75.8105 21.4414 75.9414 22.082 76.2031 22.5977C76.4688 23.1133 76.8535 23.4961 77.3574 23.7461C77.8613 23.9961 78.3965 24.1211 78.9629 24.1211C79.4551 24.1211 79.9355 24.0273 80.4043 23.8398C80.873 23.6484 81.2285 23.4453 81.4707 23.2305V21.6309H78.9453ZM84.2891 25V16.4102H90.5V17.4238H85.4258V20.0547H90.1777V21.0625H85.4258V23.9863H90.6992V25H84.2891ZM94.4551 25V17.4238H91.625V16.4102H98.4336V17.4238H95.5918V25H94.4551ZM102.916 25V16.4102H104.053V25H102.916ZM108.248 25V17.4238H105.418V16.4102H112.227V17.4238H109.385V25H108.248ZM116.17 20.8164C116.17 19.3906 116.553 18.2754 117.318 17.4707C118.084 16.6621 119.072 16.2578 120.283 16.2578C121.076 16.2578 121.791 16.4473 122.428 16.8262C123.064 17.2051 123.549 17.7344 123.881 18.4141C124.217 19.0898 124.385 19.8574 124.385 20.7168C124.385 21.5879 124.209 22.3672 123.857 23.0547C123.506 23.7422 123.008 24.2637 122.363 24.6191C121.719 24.9707 121.023 25.1465 120.277 25.1465C119.469 25.1465 118.746 24.9512 118.109 24.5605C117.473 24.1699 116.99 23.6367 116.662 22.9609C116.334 22.2852 116.17 21.5703 116.17 20.8164ZM117.342 20.834C117.342 21.8691 117.619 22.6855 118.174 23.2832C118.732 23.877 119.432 24.1738 120.271 24.1738C121.127 24.1738 121.83 23.873 122.381 23.2715C122.936 22.6699 123.213 21.8164 123.213 20.7109C123.213 20.0117 123.094 19.4023 122.855 18.8828C122.621 18.3594 122.275 17.9551 121.818 17.6699C121.365 17.3809 120.855 17.2363 120.289 17.2363C119.484 17.2363 118.791 17.5137 118.209 18.0684C117.631 18.6191 117.342 19.541 117.342 20.834ZM125.844 25V16.4102H127.01L131.521 23.1543V16.4102H132.611V25H131.445L126.934 18.25V25H125.844Z" fill="#17263C"/>
<path d="M80.4922 39.7891V37.8594H85.4766V42.4219C84.9922 42.8906 84.2891 43.3047 83.3672 43.6641C82.4505 44.0182 81.5208 44.1953 80.5781 44.1953C79.3802 44.1953 78.3359 43.9453 77.4453 43.4453C76.5547 42.9401 75.8854 42.2214 75.4375 41.2891C74.9896 40.3516 74.7656 39.3333 74.7656 38.2344C74.7656 37.0417 75.0156 35.9818 75.5156 35.0547C76.0156 34.1276 76.7474 33.4167 77.7109 32.9219C78.4453 32.5417 79.3594 32.3516 80.4531 32.3516C81.875 32.3516 82.9844 32.651 83.7812 33.25C84.5833 33.8438 85.099 34.6667 85.3281 35.7188L83.0312 36.1484C82.8698 35.5859 82.5651 35.1432 82.1172 34.8203C81.6745 34.4922 81.1198 34.3281 80.4531 34.3281C79.4427 34.3281 78.638 34.6484 78.0391 35.2891C77.4453 35.9297 77.1484 36.8802 77.1484 38.1406C77.1484 39.5 77.4505 40.5208 78.0547 41.2031C78.6589 41.8802 79.4505 42.2188 80.4297 42.2188C80.9141 42.2188 81.3984 42.125 81.8828 41.9375C82.3724 41.7448 82.7917 41.513 83.1406 41.2422V39.7891H80.4922ZM87.0938 39.7344C87.0938 39.0052 87.2734 38.2995 87.6328 37.6172C87.9922 36.9349 88.5 36.4141 89.1562 36.0547C89.8177 35.6953 90.5547 35.5156 91.3672 35.5156C92.6224 35.5156 93.651 35.9245 94.4531 36.7422C95.2552 37.5547 95.6562 38.5833 95.6562 39.8281C95.6562 41.0833 95.25 42.125 94.4375 42.9531C93.6302 43.776 92.612 44.1875 91.3828 44.1875C90.6224 44.1875 89.8958 44.0156 89.2031 43.6719C88.5156 43.3281 87.9922 42.8255 87.6328 42.1641C87.2734 41.4974 87.0938 40.6875 87.0938 39.7344ZM89.3438 39.8516C89.3438 40.6745 89.5391 41.3047 89.9297 41.7422C90.3203 42.1797 90.8021 42.3984 91.375 42.3984C91.9479 42.3984 92.4271 42.1797 92.8125 41.7422C93.2031 41.3047 93.3984 40.6693 93.3984 39.8359C93.3984 39.0234 93.2031 38.3984 92.8125 37.9609C92.4271 37.5234 91.9479 37.3047 91.375 37.3047C90.8021 37.3047 90.3203 37.5234 89.9297 37.9609C89.5391 38.3984 89.3438 39.0286 89.3438 39.8516ZM96.875 39.7344C96.875 39.0052 97.0547 38.2995 97.4141 37.6172C97.7734 36.9349 98.2812 36.4141 98.9375 36.0547C99.599 35.6953 100.336 35.5156 101.148 35.5156C102.404 35.5156 103.432 35.9245 104.234 36.7422C105.036 37.5547 105.438 38.5833 105.438 39.8281C105.438 41.0833 105.031 42.125 104.219 42.9531C103.411 43.776 102.393 44.1875 101.164 44.1875C100.404 44.1875 99.6771 44.0156 98.9844 43.6719C98.2969 43.3281 97.7734 42.8255 97.4141 42.1641C97.0547 41.4974 96.875 40.6875 96.875 39.7344ZM99.125 39.8516C99.125 40.6745 99.3203 41.3047 99.7109 41.7422C100.102 42.1797 100.583 42.3984 101.156 42.3984C101.729 42.3984 102.208 42.1797 102.594 41.7422C102.984 41.3047 103.18 40.6693 103.18 39.8359C103.18 39.0234 102.984 38.3984 102.594 37.9609C102.208 37.5234 101.729 37.3047 101.156 37.3047C100.583 37.3047 100.102 37.5234 99.7109 37.9609C99.3203 38.3984 99.125 39.0286 99.125 39.8516ZM106.961 44.5469L109.469 44.8516C109.51 45.1432 109.607 45.3438 109.758 45.4531C109.966 45.6094 110.294 45.6875 110.742 45.6875C111.315 45.6875 111.745 45.6016 112.031 45.4297C112.224 45.3151 112.37 45.1302 112.469 44.875C112.536 44.6927 112.57 44.3568 112.57 43.8672V42.6562C111.914 43.5521 111.086 44 110.086 44C108.971 44 108.089 43.5286 107.438 42.5859C106.927 41.8411 106.672 40.9141 106.672 39.8047C106.672 38.4141 107.005 37.3516 107.672 36.6172C108.344 35.8828 109.177 35.5156 110.172 35.5156C111.198 35.5156 112.044 35.9661 112.711 36.8672V35.7031H114.766V43.1484C114.766 44.1276 114.685 44.8594 114.523 45.3438C114.362 45.8281 114.135 46.2083 113.844 46.4844C113.552 46.7604 113.161 46.9766 112.672 47.1328C112.188 47.2891 111.573 47.3672 110.828 47.3672C109.422 47.3672 108.424 47.125 107.836 46.6406C107.247 46.1615 106.953 45.5521 106.953 44.8125C106.953 44.7396 106.956 44.651 106.961 44.5469ZM108.922 39.6797C108.922 40.5599 109.091 41.2057 109.43 41.6172C109.773 42.0234 110.195 42.2266 110.695 42.2266C111.232 42.2266 111.685 42.0182 112.055 41.6016C112.424 41.1797 112.609 40.5573 112.609 39.7344C112.609 38.875 112.432 38.237 112.078 37.8203C111.724 37.4036 111.276 37.1953 110.734 37.1953C110.208 37.1953 109.773 37.401 109.43 37.8125C109.091 38.2188 108.922 38.8411 108.922 39.6797ZM116.945 44V32.5469H119.141V44H116.945ZM126.203 41.3594L128.391 41.7266C128.109 42.5286 127.664 43.1406 127.055 43.5625C126.451 43.9792 125.693 44.1875 124.781 44.1875C123.339 44.1875 122.271 43.7161 121.578 42.7734C121.031 42.0182 120.758 41.0651 120.758 39.9141C120.758 38.5391 121.117 37.4635 121.836 36.6875C122.555 35.9062 123.464 35.5156 124.562 35.5156C125.797 35.5156 126.771 35.9245 127.484 36.7422C128.198 37.5547 128.539 38.8021 128.508 40.4844H123.008C123.023 41.1354 123.201 41.6432 123.539 42.0078C123.878 42.3672 124.299 42.5469 124.805 42.5469C125.148 42.5469 125.438 42.4531 125.672 42.2656C125.906 42.0781 126.083 41.776 126.203 41.3594ZM126.328 39.1406C126.312 38.5052 126.148 38.0234 125.836 37.6953C125.523 37.362 125.143 37.1953 124.695 37.1953C124.216 37.1953 123.82 37.3698 123.508 37.7188C123.195 38.0677 123.042 38.5417 123.047 39.1406H126.328ZM134.773 44V32.5469H138.484C139.891 32.5469 140.807 32.6042 141.234 32.7188C141.891 32.8906 142.44 33.2656 142.883 33.8438C143.326 34.4167 143.547 35.1589 143.547 36.0703C143.547 36.7734 143.419 37.3646 143.164 37.8438C142.909 38.3229 142.583 38.7005 142.188 38.9766C141.797 39.2474 141.398 39.4271 140.992 39.5156C140.44 39.625 139.641 39.6797 138.594 39.6797H137.086V44H134.773ZM137.086 34.4844V37.7344H138.352C139.263 37.7344 139.872 37.6745 140.18 37.5547C140.487 37.4349 140.727 37.2474 140.898 36.9922C141.076 36.737 141.164 36.4401 141.164 36.1016C141.164 35.6849 141.042 35.3411 140.797 35.0703C140.552 34.7995 140.242 34.6302 139.867 34.5625C139.591 34.5104 139.036 34.4844 138.203 34.4844H137.086ZM145.43 44V32.5469H147.625V44H145.43ZM151.523 38.2344L149.531 37.875C149.755 37.0729 150.141 36.4792 150.688 36.0938C151.234 35.7083 152.047 35.5156 153.125 35.5156C154.104 35.5156 154.833 35.6328 155.312 35.8672C155.792 36.0964 156.128 36.3906 156.32 36.75C156.518 37.1042 156.617 37.7578 156.617 38.7109L156.594 41.2734C156.594 42.0026 156.628 42.5417 156.695 42.8906C156.768 43.2344 156.901 43.6042 157.094 44H154.922C154.865 43.8542 154.794 43.638 154.711 43.3516C154.674 43.2214 154.648 43.1354 154.633 43.0938C154.258 43.4583 153.857 43.7318 153.43 43.9141C153.003 44.0964 152.547 44.1875 152.062 44.1875C151.208 44.1875 150.534 43.9557 150.039 43.4922C149.549 43.0286 149.305 42.4427 149.305 41.7344C149.305 41.2656 149.417 40.849 149.641 40.4844C149.865 40.1146 150.177 39.8333 150.578 39.6406C150.984 39.4427 151.568 39.2708 152.328 39.125C153.354 38.9323 154.065 38.7526 154.461 38.5859V38.3672C154.461 37.9453 154.357 37.6458 154.148 37.4688C153.94 37.2865 153.547 37.1953 152.969 37.1953C152.578 37.1953 152.273 37.2734 152.055 37.4297C151.836 37.5807 151.659 37.849 151.523 38.2344ZM154.461 40.0156C154.18 40.1094 153.734 40.2214 153.125 40.3516C152.516 40.4818 152.117 40.6094 151.93 40.7344C151.643 40.9375 151.5 41.1953 151.5 41.5078C151.5 41.8151 151.615 42.0807 151.844 42.3047C152.073 42.5286 152.365 42.6406 152.719 42.6406C153.115 42.6406 153.492 42.5104 153.852 42.25C154.117 42.0521 154.292 41.8099 154.375 41.5234C154.432 41.3359 154.461 40.9792 154.461 40.4531V40.0156ZM157.75 35.7031H160.086L162.07 41.5938L164.008 35.7031H166.281L163.352 43.6875L162.828 45.1328C162.635 45.6172 162.451 45.987 162.273 46.2422C162.102 46.4974 161.901 46.7031 161.672 46.8594C161.448 47.0208 161.169 47.1458 160.836 47.2344C160.508 47.3229 160.135 47.3672 159.719 47.3672C159.297 47.3672 158.883 47.3229 158.477 47.2344L158.281 45.5156C158.625 45.5833 158.935 45.6172 159.211 45.6172C159.721 45.6172 160.099 45.4661 160.344 45.1641C160.589 44.8672 160.776 44.487 160.906 44.0234L157.75 35.7031Z" fill="#17263C"/>
</svg>
