<svg width="26" height="26" viewBox="0 0 26 26" fill="none" xmlns="http://www.w3.org/2000/svg">
<g clip-path="url(#clip0_9_7297)">
<path d="M12.7625 10.5496V12.7317H13.387C14.2336 12.7317 14.6565 12.3635 14.6565 11.6276C14.6565 10.9087 14.238 10.5496 13.4 10.5496H12.7625V10.5496ZM21.1603 7.71894V1.62505C21.1603 0.727247 20.4327 0 19.5352 0H6.53471C5.63732 0 4.90966 0.727223 4.90966 1.62505V7.71894H1.87836V17.8754H4.90966V24.3755C4.90966 25.273 5.63729 26.0006 6.53471 26.0006H19.5352C20.4326 26.0006 21.1603 25.273 21.1603 24.3755V17.8754H24.1621V7.71894H21.1603ZM19.5353 2.0313V7.71894H6.53495L6.53478 2.0313H19.5353H19.5353ZM16.1713 11.5708C16.1713 12.2631 15.9174 12.8182 15.4096 13.2356C14.9017 13.6533 14.2669 13.8533 13.5045 13.8358H12.7626V16.1924H11.3224V9.4324H13.6488C15.3302 9.4324 16.1712 10.1453 16.1712 11.5708H16.1713ZM5.74541 14.6432L5.24793 16.1925H3.68537L6.15981 9.43247H7.85328L10.2797 16.1925H8.70866L8.20245 14.6432H5.74546H5.74541ZM13.0351 25.1881C12.5864 25.1881 12.2222 24.8242 12.2222 24.3755C12.2222 23.9269 12.5864 23.563 13.0351 23.563C13.4838 23.563 13.8476 23.9269 13.8476 24.3755C13.8476 24.8242 13.4838 25.1881 13.0351 25.1881ZM19.5353 22.7505H6.53474L6.5349 17.8754H19.5352V22.7505H19.5353ZM21.096 13.2356C20.5886 13.6533 19.9534 13.8533 19.1913 13.8358H18.4494V16.1924H17.0092V9.4324H19.3349C21.0171 9.4324 21.8574 10.1453 21.8574 11.5708C21.8574 12.2631 21.6038 12.8182 21.096 13.2356H21.096ZM19.0865 10.5496H18.4494V12.7317H19.073C19.9197 12.7317 20.3434 12.3635 20.3434 11.6276C20.3434 10.9087 19.9244 10.5496 19.0865 10.5496ZM6.98922 10.5977H6.94955C6.93209 10.7952 6.89323 10.9861 6.83211 11.1694L6.05947 13.5304H7.86208L7.09401 11.1868C7.04439 11.0384 7.0095 10.842 6.98924 10.5977L6.98922 10.5977Z" fill="#5EEEE5"/>
</g>
<defs>
<clipPath id="clip0_9_7297">
<rect width="26" height="26" fill="white"/>
</clipPath>
</defs>
</svg>
