<svg width="36" height="36" viewBox="0 0 36 36" fill="none" xmlns="http://www.w3.org/2000/svg">
<path d="M18.054 22.1004C21.6288 22.1004 27.9288 23.4612 28.9836 28.9116C31.7088 26.1864 33.3756 22.374 33.3756 18.1872C33.3756 9.7092 26.532 2.8656 18.054 2.8656C9.57602 2.8656 2.73242 9.7416 2.73242 18.1836C2.73242 22.3704 4.39922 26.1864 7.12442 28.944C8.17922 23.4972 14.4792 22.1004 18.054 22.1004ZM18.054 6.642C22.0032 6.642 25.2396 9.8424 25.2396 13.8276C25.2396 17.7768 22.0392 21.0132 18.054 21.0132C17.1096 21.0161 16.1739 20.8321 15.3008 20.472C14.4278 20.1119 13.6345 19.5828 12.9667 18.9149C12.2989 18.2471 11.7697 17.4539 11.4096 16.5808C11.0495 15.7077 10.8656 14.772 10.8684 13.8276C10.872 9.8748 14.1048 6.642 18.054 6.642Z" fill="#5EEEE5"/>
<path d="M18.1224 35.3988C15.8076 35.3988 13.5576 34.9452 11.4444 34.0488C9.39958 33.1848 7.56718 31.9464 5.99038 30.3732C4.42323 28.8107 3.17487 26.9583 2.31478 24.9192C1.41478 22.8024 0.961182 20.556 0.961182 18.2412C0.961182 15.9264 1.41478 13.6764 2.31118 11.5632C3.17518 9.51842 4.41358 7.68602 5.98678 6.10922C7.56358 4.53242 9.39598 3.29762 11.4408 2.43362C13.5576 1.53362 15.804 1.08002 18.1224 1.08002C20.4372 1.08002 22.6872 1.53362 24.8004 2.43002C26.8452 3.29402 28.6776 4.53242 30.2544 6.10562C31.8312 7.68242 33.066 9.51482 33.93 11.5596C34.8264 13.6764 35.28 15.9228 35.28 18.2412C35.28 20.556 34.8264 22.806 33.93 24.9192C33.066 26.964 31.8276 28.7964 30.2544 30.3732C28.6918 31.9404 26.8395 33.1887 24.8004 34.0488C22.688 34.9441 20.4166 35.4032 18.1224 35.3988ZM18.1224 2.46242C15.9912 2.46242 13.9248 2.88002 11.9808 3.70082C10.1064 4.49291 8.40339 5.64089 6.96598 7.08122C5.52333 8.51671 4.37503 10.2202 3.58558 12.096C2.76447 14.0393 2.34329 16.128 2.34718 18.2376C2.34718 20.3688 2.76478 22.4352 3.58558 24.3792C4.38118 26.2584 5.51878 27.9468 6.96598 29.394C8.41318 30.8448 10.1016 31.9824 11.9808 32.7744C13.9248 33.5952 15.9912 34.0128 18.1224 34.0128C20.2536 34.0128 22.32 33.5952 24.264 32.7744C26.1432 31.9788 27.8316 30.8412 29.2788 29.394C30.7296 27.9468 31.8672 26.2584 32.6592 24.3792C33.48 22.4352 33.8976 20.3688 33.8976 18.2376C33.8976 16.1064 33.48 14.04 32.6592 12.096C31.8671 10.2216 30.7191 8.51862 29.2788 7.08122C27.8433 5.63857 26.1398 4.49026 24.264 3.70082C22.3205 2.88039 20.2319 2.45924 18.1224 2.46242Z" fill="#5EEEE5"/>
</svg>
