<svg width="36" height="36" viewBox="0 0 36 36" fill="none" xmlns="http://www.w3.org/2000/svg">
<path d="M30.0691 4.15894H5.94141C3.90586 4.15894 2.25 5.80776 2.25 7.83276V9.47104C2.25 12.0832 4.3875 14.2101 7.01367 14.2101H8.01562V16.3582C8.01562 21.1007 11.4961 25.0242 16.0523 25.7695V28.7859H11.5523C10.6629 28.7859 9.9457 29.5031 9.9457 30.3855C9.9457 31.2679 10.6664 31.9851 11.5523 31.9851H23.7691C24.6586 31.9851 25.3758 31.2679 25.3758 30.3855C25.3758 29.5031 24.6551 28.7859 23.7691 28.7859H19.2691V25.7695C23.8254 25.0277 27.3059 21.1007 27.3059 16.3582V14.2101H29.0039C31.6301 14.2101 33.7676 12.0832 33.7676 9.47104V7.83276C33.7641 5.80776 32.1047 4.15894 30.0691 4.15894V4.15894ZM7.10156 11.0109H7.01016C6.15586 11.0109 5.45977 10.3183 5.45977 9.47104V7.83276C5.45977 7.56909 5.67422 7.35815 5.93789 7.35815H7.10156V11.0109ZM24.5039 10.7964L18.8543 16.896C18.8508 16.8996 18.8543 16.9031 18.8508 16.9066L17.3145 18.566C17.3109 18.573 17.3039 18.573 17.2969 18.58L17.1246 18.7664C16.9137 18.9949 16.5551 19.0089 16.3266 18.798L14.3789 17.0085L14.393 16.9945L12.1043 14.8957C12.0516 14.85 12.0516 14.7691 12.0973 14.7199C13.2539 13.4718 15.2086 13.3945 16.4602 14.5441L16.5691 14.646L20.2535 10.6699C21.375 9.4605 23.2734 9.38315 24.4898 10.4976C24.5812 10.575 24.5848 10.7085 24.5039 10.7964V10.7964ZM30.5473 9.47104C30.5473 10.3218 29.8512 11.0109 28.9969 11.0109H28.9055V7.35815H30.0691C30.3328 7.35815 30.5473 7.57261 30.5473 7.83276V9.47104V9.47104Z" fill="#FBF1ED"/>
</svg>
