<svg width="16" height="16" viewBox="0 0 16 16" fill="none" xmlns="http://www.w3.org/2000/svg">
<path d="M13.6375 11.8124H13.6385V11.8066L13.6375 11.8124Z" fill="black"/>
<path d="M14.4976 7.99994C14.4976 4.41688 11.5825 1.50244 8.00012 1.50244C4.41685 1.50244 1.50241 4.41688 1.50241 7.99994C1.50241 11.5828 4.41685 14.4975 8.00012 14.4975C11.5825 14.4975 14.4976 11.5828 14.4976 7.99994ZM8.00012 13.5652C4.93175 13.5652 2.43491 11.0679 2.43491 7.99994C2.43491 4.93159 4.93175 2.43498 8.00012 2.43498C11.068 2.43498 13.5649 4.93159 13.5649 7.99994C13.5649 11.0679 11.068 13.5652 8.00012 13.5652Z" fill="black"/>
<path d="M10.6622 10.0349L8.65308 8.01988L10.6603 6.03495C10.8425 5.85504 10.8439 5.561 10.664 5.37877C10.4841 5.19632 10.1896 5.19493 10.0073 5.3753L7.99826 7.36255L6.0191 5.37716C5.83782 5.19586 5.54421 5.19494 5.36246 5.37623C5.18116 5.55777 5.18116 5.85135 5.36153 6.03266L7.33839 8.01529L5.3459 9.98613C5.16367 10.1665 5.16183 10.4596 5.34222 10.6419C5.43333 10.7339 5.55206 10.7799 5.67169 10.7799C5.7895 10.7799 5.9082 10.7349 5.99841 10.646L7.99365 8.67241L10.0046 10.6907C10.0952 10.7813 10.2144 10.8269 10.3336 10.8269C10.4523 10.8269 10.5705 10.7813 10.6612 10.6916C10.8425 10.5108 10.843 10.2171 10.6622 10.0349Z" fill="black"/>
</svg>
