<svg width="24" height="24" viewBox="0 0 24 24" fill="none" xmlns="http://www.w3.org/2000/svg">
<path d="M14.2718 15.7433C13.4695 15.7433 12.8446 15.6829 12.6672 15.6627C12.256 15.6143 11.9577 15.2475 12.0061 14.8362C12.0504 14.425 12.4173 14.1307 12.8325 14.1751C14.6992 14.3807 17.5616 14.2033 18.0615 13.1631C18.2389 12.7922 18.6864 12.631 19.0613 12.8124C19.4363 12.9898 19.5935 13.4413 19.4121 13.8122C18.6179 15.4531 16.0175 15.7433 14.2718 15.7433Z" fill="#12151F"/>
<path d="M21.0005 14.9975C20.5852 14.9975 20.2506 14.6629 20.2506 14.2477V11.6634L19.2468 11.3046C18.9484 11.1998 18.7468 10.9135 18.7468 10.5991C18.7468 6.87793 15.7191 3.85021 11.998 3.85021C8.27682 3.85021 5.2491 6.87793 5.2491 10.5991C5.2491 10.841 5.13219 11.0667 4.93464 11.2078L4.49923 11.5183V14.2436C4.49923 14.6589 4.16461 14.9935 3.74936 14.9935C3.3341 14.9935 2.99948 14.6589 2.99948 14.2436V11.1313C2.99948 10.8894 3.1164 10.6636 3.31394 10.5225L3.75742 10.204C3.96303 5.83778 7.57936 2.34644 11.998 2.34644C16.3682 2.35047 19.9563 5.76522 20.2345 10.0669L21.2545 10.4298C21.5528 10.5346 21.7544 10.8208 21.7544 11.1353V14.2477C21.7504 14.6629 21.4157 14.9975 21.0005 14.9975Z" fill="#12151F"/>
<path d="M14.9975 18.3679V18.1422C15.6546 17.6302 16.1787 17.1343 16.4892 16.4368C15.8078 16.5457 15.0459 16.5054 14.4331 16.5054C13.6832 16.5054 13.0422 16.5255 12.6511 16.4812C11.8287 16.3884 11.236 15.5741 11.3247 14.7516C11.4174 13.9292 12.1633 13.3285 12.9817 13.4252C14.6508 13.6026 16.4932 13.4091 17.231 13.0987C17.2632 12.4133 17.2552 11.6916 17.2552 11.1433C17.2552 7.93421 15.3039 6.03131 12.1754 5.96277C12.1592 5.96277 11.7359 5.96277 11.7198 5.96277C8.5913 6.02727 6.71661 7.95437 6.71661 11.1675C6.71661 13.1511 6.74886 16.3884 8.99849 18.1462V18.372C5.99899 18.8396 3.70099 20.0733 3.70099 21.7021C3.70099 22.1173 4.0477 22.5043 4.46296 22.5043H19.1823C19.5975 22.5043 20.1176 22.1173 20.1176 21.7021C20.1216 20.0693 18.001 18.8396 14.9975 18.3679Z" fill="#12151F"/>
</svg>
