<svg width="26" height="26" viewBox="0 0 26 26" fill="none" xmlns="http://www.w3.org/2000/svg">
<path d="M14.1056 2.99585L22.0497 8.69771C22.4339 8.9735 22.747 9.33683 22.963 9.75763C23.179 10.1784 23.2916 10.6446 23.2917 11.1176V20.3124C23.2917 21.9577 21.9579 23.2916 20.3125 23.2916H16.25V18.9582C16.25 17.1634 14.7949 15.7082 13 15.7082C11.2052 15.7082 9.75004 17.1634 9.75004 18.9582V23.2916H5.68754C4.04223 23.2916 2.70837 21.9577 2.70837 20.3124V11.1179C2.70839 10.6448 2.82106 10.1786 3.03704 9.75775C3.25302 9.3369 3.56612 8.97353 3.95042 8.69771L11.8945 2.99585C12.2167 2.76455 12.6034 2.64014 13 2.64014C13.3967 2.64014 13.7834 2.76455 14.1056 2.99585Z" fill="#5EEEE5"/>
</svg>
