<svg width="26" height="26" viewBox="0 0 26 26" fill="none" xmlns="http://www.w3.org/2000/svg">
<path d="M14.1056 2.99597L22.0497 8.69783C22.4339 8.97363 22.747 9.33695 22.963 9.75775C23.179 10.1786 23.2916 10.6447 23.2917 11.1177V20.3125C23.2917 21.9578 21.9579 23.2917 20.3125 23.2917H16.25V18.9583C16.25 17.1635 14.7949 15.7083 13 15.7083C11.2052 15.7083 9.75004 17.1635 9.75004 18.9583V23.2917H5.68754C4.04223 23.2917 2.70837 21.9578 2.70837 20.3125V11.118C2.70839 10.645 2.82106 10.1787 3.03704 9.75787C3.25302 9.33702 3.56612 8.97365 3.95042 8.69783L11.8945 2.99597C12.2167 2.76467 12.6034 2.64026 13 2.64026C13.3967 2.64026 13.7834 2.76467 14.1056 2.99597Z" fill="black"/>
</svg>
