<svg width="26" height="26" viewBox="0 0 26 26" fill="none" xmlns="http://www.w3.org/2000/svg">
<g clip-path="url(#clip0_11_9674)">
<path d="M9.83282 5.27719H16.1706C16.151 5.73295 16.0844 6.17246 15.9708 6.5975H10.0327C9.91905 6.17246 9.85234 5.73295 9.83284 5.27719H9.83282ZM15.8398 19.3436H10.1636C10.0211 19.7714 9.92433 20.2112 9.87238 20.6639H16.1311C16.0791 20.2112 15.9823 19.7714 15.8398 19.3436H15.8398ZM10.5327 7.86703H15.4707C15.2324 8.31797 14.9316 8.75804 14.5664 9.18734H11.437C11.0719 8.75804 10.771 8.31797 10.5327 7.86703ZM17.4485 4.08985C17.9265 4.32911 18.3844 4.6065 18.8178 4.91931C18.841 7.70979 17.6331 10.1655 15.2254 12.252C14.8762 11.9799 14.5089 11.7145 14.1235 11.4562C16.6562 9.36701 17.7491 6.92862 17.4485 4.08985ZM8.51631 21.8844C8.05489 21.6511 7.61235 21.3822 7.1927 21.0802C7.29556 18.3828 8.50395 16.0002 10.7912 13.9581C11.1096 14.1985 11.4431 14.4333 11.7916 14.6624C11.8296 14.6873 11.8673 14.7123 11.9047 14.7374C9.50409 16.7801 8.38764 19.1498 8.51631 21.8844V21.8844ZM8.55534 4.08789C8.2047 7.39294 9.74261 10.1554 13.2421 12.4558C16.8069 14.7992 18.6808 17.6902 18.8109 21.0776C18.3913 21.3799 17.9488 21.649 17.4875 21.8825C17.641 18.6058 16.0065 15.853 12.5169 13.5591C8.95237 11.2159 7.1567 8.31441 7.1859 4.91662C7.61939 4.60405 8.07735 4.32691 8.55534 4.08789ZM14.2906 16.7538C14.6738 17.181 14.9973 17.6207 15.2622 18.0741H10.7412C11.0061 17.6207 11.3296 17.181 11.7128 16.7538H14.2906Z" fill="#E8A435"/>
<path d="M13 24.4766C19.3383 24.4766 24.4766 19.3383 24.4766 13C24.4766 6.66166 19.3383 1.52344 13 1.52344C6.66166 1.52344 1.52344 6.66166 1.52344 13C1.52344 19.3383 6.66166 24.4766 13 24.4766ZM13 26C5.82029 26 0 20.1797 0 13C0 5.82029 5.82029 0 13 0C20.1797 0 26 5.82029 26 13C26 20.1797 20.1797 26 13 26Z" fill="#E8A435"/>
</g>
<defs>
<clipPath id="clip0_11_9674">
<rect width="26" height="26" fill="white"/>
</clipPath>
</defs>
</svg>
