<svg width="187" height="60" viewBox="0 0 187 60" fill="none" xmlns="http://www.w3.org/2000/svg">
<rect width="187" height="60" rx="5" fill="white"/>
<path d="M74.9258 25V16.4102H77.8848C78.5527 16.4102 79.0625 16.4512 79.4141 16.5332C79.9062 16.6465 80.3262 16.8516 80.6738 17.1484C81.127 17.5312 81.4648 18.0215 81.6875 18.6191C81.9141 19.2129 82.0273 19.8926 82.0273 20.6582C82.0273 21.3105 81.9512 21.8887 81.7988 22.3926C81.6465 22.8965 81.4512 23.3145 81.2129 23.6465C80.9746 23.9746 80.7129 24.2344 80.4277 24.4258C80.1465 24.6133 79.8047 24.7559 79.4023 24.8535C79.0039 24.9512 78.5449 25 78.0254 25H74.9258ZM76.0625 23.9863H77.8965C78.4629 23.9863 78.9062 23.9336 79.2266 23.8281C79.5508 23.7227 79.8086 23.5742 80 23.3828C80.2695 23.1133 80.4785 22.752 80.627 22.2988C80.7793 21.8418 80.8555 21.2891 80.8555 20.6406C80.8555 19.7422 80.707 19.0527 80.4102 18.5723C80.1172 18.0879 79.7598 17.7637 79.3379 17.5996C79.0332 17.4824 78.543 17.4238 77.8672 17.4238H76.0625V23.9863ZM83.0703 21.8887C83.0703 20.7363 83.3906 19.8828 84.0312 19.3281C84.5664 18.8672 85.2188 18.6367 85.9883 18.6367C86.8438 18.6367 87.543 18.918 88.0859 19.4805C88.6289 20.0391 88.9004 20.8125 88.9004 21.8008C88.9004 22.6016 88.7793 23.2324 88.5371 23.6934C88.2988 24.1504 87.9492 24.5059 87.4883 24.7598C87.0312 25.0137 86.5312 25.1406 85.9883 25.1406C85.1172 25.1406 84.4121 24.8613 83.873 24.3027C83.3379 23.7441 83.0703 22.9395 83.0703 21.8887ZM84.1543 21.8887C84.1543 22.6855 84.3281 23.2832 84.6758 23.6816C85.0234 24.0762 85.4609 24.2734 85.9883 24.2734C86.5117 24.2734 86.9473 24.0742 87.2949 23.6758C87.6426 23.2773 87.8164 22.6699 87.8164 21.8535C87.8164 21.084 87.6406 20.502 87.2891 20.1074C86.9414 19.709 86.5078 19.5098 85.9883 19.5098C85.4609 19.5098 85.0234 19.707 84.6758 20.1016C84.3281 20.4961 84.1543 21.0918 84.1543 21.8887ZM91.291 25L89.3867 18.7773H90.4766L91.4668 22.3691L91.8359 23.7051C91.8516 23.6387 91.959 23.2109 92.1582 22.4219L93.1484 18.7773H94.2324L95.1641 22.3867L95.4746 23.5762L95.832 22.375L96.8984 18.7773H97.9238L95.9785 25H94.8828L93.8926 21.2734L93.6523 20.2129L92.3926 25H91.291ZM98.8145 25V18.7773H99.7637V19.6621C100.221 18.9785 100.881 18.6367 101.744 18.6367C102.119 18.6367 102.463 18.7051 102.775 18.8418C103.092 18.9746 103.328 19.1504 103.484 19.3691C103.641 19.5879 103.75 19.8477 103.812 20.1484C103.852 20.3438 103.871 20.6855 103.871 21.1738V25H102.816V21.2148C102.816 20.7852 102.775 20.4648 102.693 20.2539C102.611 20.0391 102.465 19.8691 102.254 19.7441C102.047 19.6152 101.803 19.5508 101.521 19.5508C101.072 19.5508 100.684 19.6934 100.355 19.9785C100.031 20.2637 99.8691 20.8047 99.8691 21.6016V25H98.8145ZM105.471 25V16.4102H106.525V25H105.471ZM107.773 21.8887C107.773 20.7363 108.094 19.8828 108.734 19.3281C109.27 18.8672 109.922 18.6367 110.691 18.6367C111.547 18.6367 112.246 18.918 112.789 19.4805C113.332 20.0391 113.604 20.8125 113.604 21.8008C113.604 22.6016 113.482 23.2324 113.24 23.6934C113.002 24.1504 112.652 24.5059 112.191 24.7598C111.734 25.0137 111.234 25.1406 110.691 25.1406C109.82 25.1406 109.115 24.8613 108.576 24.3027C108.041 23.7441 107.773 22.9395 107.773 21.8887ZM108.857 21.8887C108.857 22.6855 109.031 23.2832 109.379 23.6816C109.727 24.0762 110.164 24.2734 110.691 24.2734C111.215 24.2734 111.65 24.0742 111.998 23.6758C112.346 23.2773 112.52 22.6699 112.52 21.8535C112.52 21.084 112.344 20.502 111.992 20.1074C111.645 19.709 111.211 19.5098 110.691 19.5098C110.164 19.5098 109.727 19.707 109.379 20.1016C109.031 20.4961 108.857 21.0918 108.857 21.8887ZM118.906 24.2324C118.516 24.5645 118.139 24.7988 117.775 24.9355C117.416 25.0723 117.029 25.1406 116.615 25.1406C115.932 25.1406 115.406 24.9746 115.039 24.6426C114.672 24.3066 114.488 23.8789 114.488 23.3594C114.488 23.0547 114.557 22.7773 114.693 22.5273C114.834 22.2734 115.016 22.0703 115.238 21.918C115.465 21.7656 115.719 21.6504 116 21.5723C116.207 21.5176 116.52 21.4648 116.938 21.4141C117.789 21.3125 118.416 21.1914 118.818 21.0508C118.822 20.9062 118.824 20.8145 118.824 20.7754C118.824 20.3457 118.725 20.043 118.525 19.8672C118.256 19.6289 117.855 19.5098 117.324 19.5098C116.828 19.5098 116.461 19.5977 116.223 19.7734C115.988 19.9453 115.814 20.252 115.701 20.6934L114.67 20.5527C114.764 20.1113 114.918 19.7559 115.133 19.4863C115.348 19.2129 115.658 19.0039 116.064 18.8594C116.471 18.7109 116.941 18.6367 117.477 18.6367C118.008 18.6367 118.439 18.6992 118.771 18.8242C119.104 18.9492 119.348 19.1074 119.504 19.2988C119.66 19.4863 119.77 19.7246 119.832 20.0137C119.867 20.1934 119.885 20.5176 119.885 20.9863V22.3926C119.885 23.373 119.906 23.9941 119.949 24.2559C119.996 24.5137 120.086 24.7617 120.219 25H119.117C119.008 24.7812 118.938 24.5254 118.906 24.2324ZM118.818 21.877C118.436 22.0332 117.861 22.166 117.096 22.2754C116.662 22.3379 116.355 22.4082 116.176 22.4863C115.996 22.5645 115.857 22.6797 115.76 22.832C115.662 22.9805 115.613 23.1465 115.613 23.3301C115.613 23.6113 115.719 23.8457 115.93 24.0332C116.145 24.2207 116.457 24.3145 116.867 24.3145C117.273 24.3145 117.635 24.2266 117.951 24.0508C118.268 23.8711 118.5 23.627 118.648 23.3184C118.762 23.0801 118.818 22.7285 118.818 22.2637V21.877ZM125.562 25V24.2148C125.168 24.832 124.588 25.1406 123.822 25.1406C123.326 25.1406 122.869 25.0039 122.451 24.7305C122.037 24.457 121.715 24.0762 121.484 23.5879C121.258 23.0957 121.145 22.5312 121.145 21.8945C121.145 21.2734 121.248 20.7109 121.455 20.207C121.662 19.6992 121.973 19.3105 122.387 19.041C122.801 18.7715 123.264 18.6367 123.775 18.6367C124.15 18.6367 124.484 18.7168 124.777 18.877C125.07 19.0332 125.309 19.2383 125.492 19.4922V16.4102H126.541V25H125.562ZM122.229 21.8945C122.229 22.6914 122.396 23.2871 122.732 23.6816C123.068 24.0762 123.465 24.2734 123.922 24.2734C124.383 24.2734 124.773 24.0859 125.094 23.7109C125.418 23.332 125.58 22.7559 125.58 21.9824C125.58 21.1309 125.416 20.5059 125.088 20.1074C124.76 19.709 124.355 19.5098 123.875 19.5098C123.406 19.5098 123.014 19.7012 122.697 20.084C122.385 20.4668 122.229 21.0703 122.229 21.8945ZM131.152 21.8887C131.152 20.7363 131.473 19.8828 132.113 19.3281C132.648 18.8672 133.301 18.6367 134.07 18.6367C134.926 18.6367 135.625 18.918 136.168 19.4805C136.711 20.0391 136.982 20.8125 136.982 21.8008C136.982 22.6016 136.861 23.2324 136.619 23.6934C136.381 24.1504 136.031 24.5059 135.57 24.7598C135.113 25.0137 134.613 25.1406 134.07 25.1406C133.199 25.1406 132.494 24.8613 131.955 24.3027C131.42 23.7441 131.152 22.9395 131.152 21.8887ZM132.236 21.8887C132.236 22.6855 132.41 23.2832 132.758 23.6816C133.105 24.0762 133.543 24.2734 134.07 24.2734C134.594 24.2734 135.029 24.0742 135.377 23.6758C135.725 23.2773 135.898 22.6699 135.898 21.8535C135.898 21.084 135.723 20.502 135.371 20.1074C135.023 19.709 134.59 19.5098 134.07 19.5098C133.543 19.5098 133.105 19.707 132.758 20.1016C132.41 20.4961 132.236 21.0918 132.236 21.8887ZM138.225 25V18.7773H139.174V19.6621C139.631 18.9785 140.291 18.6367 141.154 18.6367C141.529 18.6367 141.873 18.7051 142.186 18.8418C142.502 18.9746 142.738 19.1504 142.895 19.3691C143.051 19.5879 143.16 19.8477 143.223 20.1484C143.262 20.3438 143.281 20.6855 143.281 21.1738V25H142.227V21.2148C142.227 20.7852 142.186 20.4648 142.104 20.2539C142.021 20.0391 141.875 19.8691 141.664 19.7441C141.457 19.6152 141.213 19.5508 140.932 19.5508C140.482 19.5508 140.094 19.6934 139.766 19.9785C139.441 20.2637 139.279 20.8047 139.279 21.6016V25H138.225ZM150.547 24.0566L150.699 24.9883C150.402 25.0508 150.137 25.082 149.902 25.082C149.52 25.082 149.223 25.0215 149.012 24.9004C148.801 24.7793 148.652 24.6211 148.566 24.4258C148.48 24.2266 148.438 23.8105 148.438 23.1777V19.5977H147.664V18.7773H148.438V17.2363L149.486 16.6035V18.7773H150.547V19.5977H149.486V23.2363C149.486 23.5371 149.504 23.7305 149.539 23.8164C149.578 23.9023 149.639 23.9707 149.721 24.0215C149.807 24.0723 149.928 24.0977 150.084 24.0977C150.201 24.0977 150.355 24.084 150.547 24.0566ZM151.584 25V16.4102H152.639V19.4922C153.131 18.9219 153.752 18.6367 154.502 18.6367C154.963 18.6367 155.363 18.7285 155.703 18.9121C156.043 19.0918 156.285 19.3418 156.43 19.6621C156.578 19.9824 156.652 20.4473 156.652 21.0566V25H155.598V21.0566C155.598 20.5293 155.482 20.1465 155.252 19.9082C155.025 19.666 154.703 19.5449 154.285 19.5449C153.973 19.5449 153.678 19.627 153.4 19.791C153.127 19.9512 152.932 20.1699 152.814 20.4473C152.697 20.7246 152.639 21.1074 152.639 21.5957V25H151.584ZM162.523 22.9961L163.613 23.1309C163.441 23.7676 163.123 24.2617 162.658 24.6133C162.193 24.9648 161.6 25.1406 160.877 25.1406C159.967 25.1406 159.244 24.8613 158.709 24.3027C158.178 23.7402 157.912 22.9531 157.912 21.9414C157.912 20.8945 158.182 20.082 158.721 19.5039C159.26 18.9258 159.959 18.6367 160.818 18.6367C161.65 18.6367 162.33 18.9199 162.857 19.4863C163.385 20.0527 163.648 20.8496 163.648 21.877C163.648 21.9395 163.646 22.0332 163.643 22.1582H159.002C159.041 22.8418 159.234 23.3652 159.582 23.7285C159.93 24.0918 160.363 24.2734 160.883 24.2734C161.27 24.2734 161.6 24.1719 161.873 23.9688C162.146 23.7656 162.363 23.4414 162.523 22.9961ZM159.061 21.291H162.535C162.488 20.7676 162.355 20.375 162.137 20.1133C161.801 19.707 161.365 19.5039 160.83 19.5039C160.346 19.5039 159.938 19.666 159.605 19.9902C159.277 20.3145 159.096 20.748 159.061 21.291Z" fill="#17263C"/>
<path d="M85.4922 44H82.9766L81.9766 41.3984H77.3984L76.4531 44H74L78.4609 32.5469H80.9062L85.4922 44ZM81.2344 39.4688L79.6562 35.2188L78.1094 39.4688H81.2344ZM86.6484 35.7031H88.6953V36.9219C88.9609 36.5052 89.3203 36.1667 89.7734 35.9062C90.2266 35.6458 90.7292 35.5156 91.2812 35.5156C92.2448 35.5156 93.0625 35.8932 93.7344 36.6484C94.4062 37.4036 94.7422 38.4557 94.7422 39.8047C94.7422 41.1901 94.4036 42.2682 93.7266 43.0391C93.0495 43.8047 92.2292 44.1875 91.2656 44.1875C90.8073 44.1875 90.3906 44.0964 90.0156 43.9141C89.6458 43.7318 89.2552 43.4193 88.8438 42.9766V47.1562H86.6484V35.7031ZM88.8203 39.7109C88.8203 40.6432 89.0052 41.3333 89.375 41.7812C89.7448 42.224 90.1953 42.4453 90.7266 42.4453C91.237 42.4453 91.6615 42.2422 92 41.8359C92.3385 41.4245 92.5078 40.7526 92.5078 39.8203C92.5078 38.9505 92.3333 38.3047 91.9844 37.8828C91.6354 37.4609 91.2031 37.25 90.6875 37.25C90.151 37.25 89.7057 37.4583 89.3516 37.875C88.9974 38.2865 88.8203 38.8984 88.8203 39.7109ZM96.4297 35.7031H98.4766V36.9219C98.7422 36.5052 99.1016 36.1667 99.5547 35.9062C100.008 35.6458 100.51 35.5156 101.062 35.5156C102.026 35.5156 102.844 35.8932 103.516 36.6484C104.188 37.4036 104.523 38.4557 104.523 39.8047C104.523 41.1901 104.185 42.2682 103.508 43.0391C102.831 43.8047 102.01 44.1875 101.047 44.1875C100.589 44.1875 100.172 44.0964 99.7969 43.9141C99.4271 43.7318 99.0365 43.4193 98.625 42.9766V47.1562H96.4297V35.7031ZM98.6016 39.7109C98.6016 40.6432 98.7865 41.3333 99.1562 41.7812C99.526 42.224 99.9766 42.4453 100.508 42.4453C101.018 42.4453 101.443 42.2422 101.781 41.8359C102.12 41.4245 102.289 40.7526 102.289 39.8203C102.289 38.9505 102.115 38.3047 101.766 37.8828C101.417 37.4609 100.984 37.25 100.469 37.25C99.9323 37.25 99.487 37.4583 99.1328 37.875C98.7786 38.2865 98.6016 38.8984 98.6016 39.7109ZM110.156 40.2734L112.406 40.0547C112.542 40.8099 112.815 41.3646 113.227 41.7188C113.643 42.0729 114.203 42.25 114.906 42.25C115.651 42.25 116.211 42.0938 116.586 41.7812C116.966 41.4635 117.156 41.0938 117.156 40.6719C117.156 40.401 117.076 40.1719 116.914 39.9844C116.758 39.7917 116.482 39.625 116.086 39.4844C115.815 39.3906 115.198 39.224 114.234 38.9844C112.995 38.6771 112.125 38.2995 111.625 37.8516C110.922 37.2214 110.57 36.4531 110.57 35.5469C110.57 34.9635 110.734 34.4193 111.062 33.9141C111.396 33.4036 111.872 33.0156 112.492 32.75C113.117 32.4844 113.87 32.3516 114.75 32.3516C116.188 32.3516 117.268 32.6667 117.992 33.2969C118.721 33.9271 119.104 34.7682 119.141 35.8203L116.828 35.9219C116.729 35.3333 116.516 34.9115 116.188 34.6562C115.865 34.3958 115.378 34.2656 114.727 34.2656C114.055 34.2656 113.529 34.4036 113.148 34.6797C112.904 34.8568 112.781 35.0938 112.781 35.3906C112.781 35.6615 112.896 35.8932 113.125 36.0859C113.417 36.3307 114.125 36.5859 115.25 36.8516C116.375 37.1172 117.206 37.3932 117.742 37.6797C118.284 37.9609 118.706 38.349 119.008 38.8438C119.315 39.3333 119.469 39.9401 119.469 40.6641C119.469 41.3203 119.286 41.9349 118.922 42.5078C118.557 43.0807 118.042 43.5078 117.375 43.7891C116.708 44.0651 115.878 44.2031 114.883 44.2031C113.435 44.2031 112.323 43.8698 111.547 43.2031C110.771 42.5312 110.307 41.5547 110.156 40.2734ZM125.203 35.7031V37.4531H123.703V40.7969C123.703 41.474 123.716 41.8698 123.742 41.9844C123.773 42.0938 123.839 42.1849 123.938 42.2578C124.042 42.3307 124.167 42.3672 124.312 42.3672C124.516 42.3672 124.81 42.2969 125.195 42.1562L125.383 43.8594C124.872 44.0781 124.294 44.1875 123.648 44.1875C123.253 44.1875 122.896 44.1224 122.578 43.9922C122.26 43.8568 122.026 43.6849 121.875 43.4766C121.729 43.263 121.628 42.9766 121.57 42.6172C121.523 42.362 121.5 41.8464 121.5 41.0703V37.4531H120.492V35.7031H121.5V34.0547L123.703 32.7734V35.7031H125.203ZM126.219 39.7344C126.219 39.0052 126.398 38.2995 126.758 37.6172C127.117 36.9349 127.625 36.4141 128.281 36.0547C128.943 35.6953 129.68 35.5156 130.492 35.5156C131.747 35.5156 132.776 35.9245 133.578 36.7422C134.38 37.5547 134.781 38.5833 134.781 39.8281C134.781 41.0833 134.375 42.125 133.562 42.9531C132.755 43.776 131.737 44.1875 130.508 44.1875C129.747 44.1875 129.021 44.0156 128.328 43.6719C127.641 43.3281 127.117 42.8255 126.758 42.1641C126.398 41.4974 126.219 40.6875 126.219 39.7344ZM128.469 39.8516C128.469 40.6745 128.664 41.3047 129.055 41.7422C129.445 42.1797 129.927 42.3984 130.5 42.3984C131.073 42.3984 131.552 42.1797 131.938 41.7422C132.328 41.3047 132.523 40.6693 132.523 39.8359C132.523 39.0234 132.328 38.3984 131.938 37.9609C131.552 37.5234 131.073 37.3047 130.5 37.3047C129.927 37.3047 129.445 37.5234 129.055 37.9609C128.664 38.3984 128.469 39.0286 128.469 39.8516ZM138.609 44H136.414V35.7031H138.453V36.8828C138.802 36.3255 139.115 35.9583 139.391 35.7812C139.672 35.6042 139.99 35.5156 140.344 35.5156C140.844 35.5156 141.326 35.6536 141.789 35.9297L141.109 37.8438C140.74 37.6042 140.396 37.4844 140.078 37.4844C139.771 37.4844 139.51 37.5703 139.297 37.7422C139.083 37.9089 138.914 38.2135 138.789 38.6562C138.669 39.099 138.609 40.026 138.609 41.4375V44ZM147.547 41.3594L149.734 41.7266C149.453 42.5286 149.008 43.1406 148.398 43.5625C147.794 43.9792 147.036 44.1875 146.125 44.1875C144.682 44.1875 143.615 43.7161 142.922 42.7734C142.375 42.0182 142.102 41.0651 142.102 39.9141C142.102 38.5391 142.461 37.4635 143.18 36.6875C143.898 35.9062 144.807 35.5156 145.906 35.5156C147.141 35.5156 148.115 35.9245 148.828 36.7422C149.542 37.5547 149.883 38.8021 149.852 40.4844H144.352C144.367 41.1354 144.544 41.6432 144.883 42.0078C145.221 42.3672 145.643 42.5469 146.148 42.5469C146.492 42.5469 146.781 42.4531 147.016 42.2656C147.25 42.0781 147.427 41.776 147.547 41.3594ZM147.672 39.1406C147.656 38.5052 147.492 38.0234 147.18 37.6953C146.867 37.362 146.487 37.1953 146.039 37.1953C145.56 37.1953 145.164 37.3698 144.852 37.7188C144.539 38.0677 144.385 38.5417 144.391 39.1406H147.672Z" fill="#17263C"/>
<path d="M49.5801 31.4745C49.5273 26.4682 53.9619 24.0691 54.1592 23.9482C51.6664 20.55 47.7846 20.0864 46.4019 20.0309C43.0992 19.7209 39.9564 21.8436 38.2792 21.8436C36.6064 21.8436 34.0192 20.0773 31.2792 20.1255C27.6773 20.1736 24.3555 22.0745 22.5037 25.08C18.7619 31.1291 21.5455 40.0891 25.1919 44.9945C26.9737 47.3973 29.0992 50.0927 31.8882 49.9973C34.5746 49.8964 35.591 48.3764 38.8382 48.3764C42.0864 48.3764 42.9982 49.9964 45.8419 49.9473C48.7328 49.8964 50.5646 47.5 52.3346 45.0909C54.3801 42.3064 55.2228 39.6091 55.2728 39.47C55.2092 39.4427 49.6346 37.4545 49.5801 31.4745ZM45.3582 16.9164C46.9655 15.0836 48.0501 12.5382 47.7546 10C45.4382 10.0891 42.631 11.4509 40.971 13.2809C39.4782 14.9036 38.1746 17.4955 38.5246 19.9827C41.1101 20.1736 43.7473 18.7482 45.3582 16.9182V16.9164Z" fill="#17263C"/>
</svg>
