<svg width="24" height="24" viewBox="0 0 24 24" fill="none" xmlns="http://www.w3.org/2000/svg">
<g clip-path="url(#clip0_9_7287)">
<path d="M15.6 19.3125C15.3 18.6 14.325 17.3625 12.7125 15.6375C12.2625 15.1875 12.3 14.8125 12.45 13.8V13.6875C12.5625 12.975 12.75 12.5625 15.15 12.1875C16.3875 12 16.6875 12.4875 17.1375 13.1625C17.175 13.2375 17.25 13.3125 17.2875 13.3875C17.7 13.9875 18.0375 14.1375 18.4875 14.3625C18.7125 14.475 18.975 14.5875 19.3125 14.775C20.1375 15.2625 20.1375 15.7875 20.1375 16.9875V17.1375C20.1375 19.05 19.425 20.0625 19.1625 20.4C18.1125 21.3 16.9125 22.0125 15.6 22.4625C16.275 21.1875 15.7875 19.725 15.6 19.3125ZM12 0.975C13.725 0.975 15.3375 1.35 16.7625 2.0625C15.975 2.55 14.8125 3.3375 14.3625 4.0125C14.175 4.2375 14.025 4.4625 13.9125 4.6875C13.4625 5.3625 13.2375 5.7 12.825 5.7375C12.6 5.775 12.3375 5.7375 12.0375 5.7375C11.25 5.7 10.125 5.625 9.7875 6.5625C9.5625 7.1625 9.525 8.8125 10.2375 9.6375C10.35 9.7875 10.3875 10.0125 10.3125 10.3125C10.2 10.6875 10.0125 10.9125 9.9375 10.95C9.825 10.875 9.5625 10.575 9.4125 10.3875C9 9.9 8.5125 9.3375 7.8375 9.15C7.6125 9.075 7.35 9.0375 7.0875 8.9625C6.375 8.8125 5.5875 8.6625 5.4 8.25C5.25 7.95 5.25 7.575 5.25 7.125C5.25 6.6 5.25 6 4.9875 5.4C4.7625 4.875 4.35 4.6125 3.9375 4.4625C5.925 2.325 8.8125 0.975 12 0.975ZM0 12C0 18.6375 5.3625 24 12 24C18.6375 24 24 18.6375 24 12C24 5.3625 18.6375 0 12 0C5.3625 0 0 5.3625 0 12Z" fill="#12151F"/>
</g>
<defs>
<clipPath id="clip0_9_7287">
<rect width="24" height="24" fill="white"/>
</clipPath>
</defs>
</svg>
