<svg width="26" height="26" viewBox="0 0 26 26" fill="none" xmlns="http://www.w3.org/2000/svg">
<path d="M9.42809 16.25C9.42297 16.2457 9.41923 16.2405 9.41398 16.2363C7.67491 14.8611 6.93287 13.4533 6.93287 11.5291C6.93287 11.091 6.57788 10.7359 6.13976 10.7359C5.70165 10.7359 5.34662 11.0911 5.34662 11.5291C5.34662 13.6435 6.11045 15.364 7.73415 16.8822C5.26288 18.8192 3.89101 20.8046 3.22056 23.3804C3.11032 23.8043 3.36438 24.2375 3.7883 24.3478C3.85544 24.3651 3.92256 24.3736 3.98865 24.3736C4.34108 24.3736 4.66277 24.1369 4.75571 23.7801C5.39469 21.3247 6.80333 19.466 9.4654 17.5652C9.82196 17.3106 9.90456 16.8153 9.65001 16.4589C9.58848 16.3727 9.5124 16.3033 9.42809 16.25Z" fill="#5EEEE5"/>
<path d="M22.8028 23.3778C22.1257 20.8123 20.7735 18.8434 18.3566 16.9391C20.0177 15.4209 20.7988 13.6815 20.7988 11.5291C20.7988 11.0911 20.4438 10.736 20.0057 10.736C19.5676 10.736 19.2126 11.0911 19.2126 11.5291C19.2126 13.4524 18.4371 14.9129 16.7027 16.258C16.5942 16.3139 16.4958 16.3926 16.4201 16.4988C16.1655 16.8552 16.2481 17.3505 16.6047 17.6051C19.2601 19.5013 20.6116 21.291 21.2692 23.7826C21.3629 24.1384 21.6841 24.3736 22.0355 24.3736C22.1024 24.3736 22.1705 24.3651 22.2384 24.347C22.6618 24.2352 22.9146 23.8015 22.8028 23.3778Z" fill="#5EEEE5"/>
<path d="M6.03155 9.86962C6.46193 9.79513 6.75085 9.38515 6.67802 8.95436C6.67415 8.93202 6.31684 6.70717 7.69266 5.07922C8.73338 3.84758 10.5182 3.22317 12.9975 3.22317C15.4788 3.22317 17.268 3.84875 18.3157 5.08244C19.6993 6.71154 19.3533 8.93589 19.3499 8.95524C19.2758 9.38692 19.5655 9.79705 19.9974 9.87125C20.0429 9.87913 20.0881 9.88287 20.1327 9.88287C20.5117 9.88287 20.8469 9.61023 20.9135 9.22401C20.9339 9.10459 21.3947 6.2743 19.5387 4.07193C18.177 2.45617 15.9761 1.63697 12.9975 1.63697C10.0191 1.63697 7.82229 2.45604 6.46738 4.0716C4.61907 6.27566 5.09439 9.10828 5.11557 9.2278C5.1917 9.65817 5.60271 9.94476 6.03155 9.86962Z" fill="#5EEEE5"/>
<path d="M10.1919 9.31622C9.7538 9.31622 9.3988 9.67134 9.3988 10.1094V10.9554C9.3988 11.3934 9.7538 11.7485 10.1919 11.7485C10.6301 11.7485 10.9851 11.3934 10.9851 10.9554V10.1094C10.9851 9.67134 10.6301 9.31622 10.1919 9.31622Z" fill="#5EEEE5"/>
<path d="M15.8321 9.31622C15.3939 9.31622 15.0389 9.67134 15.0389 10.1094V10.9554C15.0389 11.3934 15.3939 11.7485 15.8321 11.7485C16.2702 11.7485 16.6252 11.3934 16.6252 10.9554V10.1094C16.6252 9.67134 16.2702 9.31622 15.8321 9.31622Z" fill="#5EEEE5"/>
<path d="M14.9679 12.6696C14.6044 12.4306 14.1151 12.5325 13.8719 12.892C13.8686 12.8969 13.5262 13.3936 13.0042 13.3936C12.4966 13.3936 12.1806 12.9336 12.1594 12.9017C11.9263 12.5356 11.4412 12.4239 11.0717 12.6538C10.6997 12.885 10.5853 13.3741 10.8167 13.7462C11.1014 14.2043 11.8824 14.9799 13.0042 14.9799C14.1206 14.9799 14.9114 14.2101 15.2026 13.7552C15.4367 13.3896 15.3304 12.9083 14.9679 12.6696Z" fill="#5EEEE5"/>
</svg>
