<svg width="26" height="26" viewBox="0 0 26 26" fill="none" xmlns="http://www.w3.org/2000/svg">
<path d="M9.28571 22.6571C3.9 22.2857 0 20.6143 0 18.3857V21.1714C0 23.7714 5.38571 26 12.2571 26H13C11.3286 25.0714 10.2143 23.9571 9.28571 22.6571ZM8.54286 20.8C8.35714 20.0571 8.17143 19.3143 8.17143 18.5714C8.17143 18.2 8.17143 17.8286 8.35714 17.4571C3.52857 17.0857 0 15.6 0 13.5571V16.3429C0 18.3857 3.52857 20.2429 8.54286 20.8ZM8.72857 15.9714C9.1 14.8571 9.84286 13.9286 10.7714 13C4.64286 12.8143 0 11.1429 0 8.54286V11.3286C0 13.5571 3.71429 15.4143 8.72857 15.9714ZM19.6857 13H17.4571V17.4571H13V19.6857H17.4571V24.1429H19.6857V19.6857H24.1429V17.4571H19.6857V13ZM13 0C5.75714 0 0 2.41429 0 5.57143C0 8.72857 5.75714 11.1429 13 11.1429H13.3714C15.9714 9.65714 19.5 8.72857 23.2143 8.72857H23.7714C25.2571 7.8 26 6.68571 26 5.57143C26 2.41429 20.2429 0 13 0Z" fill="#C5A960"/>
</svg>
