<svg width="100" height="31" viewBox="0 0 100 31" fill="none" xmlns="http://www.w3.org/2000/svg">
<path d="M0 0H85C93.2843 0 100 6.71573 100 15V31H15C6.71573 31 0 24.2843 0 16V0Z" fill="#FA3988"/>
<path d="M0 0H85C93.2843 0 100 6.71573 100 15V31H15C6.71573 31 0 24.2843 0 16V0Z" fill="url(#paint0_linear_5_2442)" fill-opacity="0.6"/>
<path d="M8.84961 19V10.4102H11.4453L13.0039 16.2695L14.5449 10.4102H17.1465V19H15.5352V12.2383L13.8301 19H12.1602L10.4609 12.2383V19H8.84961ZM18.4766 15.8008C18.4766 15.2539 18.6113 14.7246 18.8809 14.2129C19.1504 13.7012 19.5312 13.3105 20.0234 13.041C20.5195 12.7715 21.0723 12.6367 21.6816 12.6367C22.623 12.6367 23.3945 12.9434 23.9961 13.5566C24.5977 14.166 24.8984 14.9375 24.8984 15.8711C24.8984 16.8125 24.5938 17.5938 23.9844 18.2148C23.3789 18.832 22.6152 19.1406 21.6934 19.1406C21.123 19.1406 20.5781 19.0117 20.0586 18.7539C19.543 18.4961 19.1504 18.1191 18.8809 17.623C18.6113 17.123 18.4766 16.5156 18.4766 15.8008ZM20.1641 15.8887C20.1641 16.5059 20.3105 16.9785 20.6035 17.3066C20.8965 17.6348 21.2578 17.7988 21.6875 17.7988C22.1172 17.7988 22.4766 17.6348 22.7656 17.3066C23.0586 16.9785 23.2051 16.502 23.2051 15.877C23.2051 15.2676 23.0586 14.7988 22.7656 14.4707C22.4766 14.1426 22.1172 13.9785 21.6875 13.9785C21.2578 13.9785 20.8965 14.1426 20.6035 14.4707C20.3105 14.7988 20.1641 15.2715 20.1641 15.8887ZM25.6133 17.2246L27.2656 16.9727C27.3359 17.293 27.4785 17.5371 27.6934 17.7051C27.9082 17.8691 28.209 17.9512 28.5957 17.9512C29.0215 17.9512 29.3418 17.873 29.5566 17.7168C29.7012 17.6074 29.7734 17.4609 29.7734 17.2773C29.7734 17.1523 29.7344 17.0488 29.6562 16.9668C29.5742 16.8887 29.3906 16.8164 29.1055 16.75C27.7773 16.457 26.9355 16.1895 26.5801 15.9473C26.0879 15.6113 25.8418 15.1445 25.8418 14.5469C25.8418 14.0078 26.0547 13.5547 26.4805 13.1875C26.9062 12.8203 27.5664 12.6367 28.4609 12.6367C29.3125 12.6367 29.9453 12.7754 30.3594 13.0527C30.7734 13.3301 31.0586 13.7402 31.2148 14.2832L29.6621 14.5703C29.5957 14.3281 29.4688 14.1426 29.2812 14.0137C29.0977 13.8848 28.834 13.8203 28.4902 13.8203C28.0566 13.8203 27.7461 13.8809 27.5586 14.002C27.4336 14.0879 27.3711 14.1992 27.3711 14.3359C27.3711 14.4531 27.4258 14.5527 27.5352 14.6348C27.6836 14.7441 28.1953 14.8984 29.0703 15.0977C29.9492 15.2969 30.5625 15.541 30.9102 15.8301C31.2539 16.123 31.4258 16.5312 31.4258 17.0547C31.4258 17.625 31.1875 18.1152 30.7109 18.5254C30.2344 18.9355 29.5293 19.1406 28.5957 19.1406C27.748 19.1406 27.0762 18.9688 26.5801 18.625C26.0879 18.2812 25.7656 17.8145 25.6133 17.2246ZM35.7266 12.7773V14.0898H34.6016V16.5977C34.6016 17.1055 34.6113 17.4023 34.6309 17.4883C34.6543 17.5703 34.7031 17.6387 34.7773 17.6934C34.8555 17.748 34.9492 17.7754 35.0586 17.7754C35.2109 17.7754 35.4316 17.7227 35.7207 17.6172L35.8613 18.8945C35.4785 19.0586 35.0449 19.1406 34.5605 19.1406C34.2637 19.1406 33.9961 19.0918 33.7578 18.9941C33.5195 18.8926 33.3438 18.7637 33.2305 18.6074C33.1211 18.4473 33.0449 18.2324 33.002 17.9629C32.9668 17.7715 32.9492 17.3848 32.9492 16.8027V14.0898H32.1934V12.7773H32.9492V11.541L34.6016 10.5801V12.7773H35.7266ZM39.4883 12.7773H40.4023V12.3086C40.4023 11.7852 40.457 11.3945 40.5664 11.1367C40.6797 10.8789 40.8848 10.6699 41.1816 10.5098C41.4824 10.3457 41.8613 10.2637 42.3184 10.2637C42.7871 10.2637 43.2461 10.334 43.6953 10.4746L43.4727 11.623C43.2109 11.5605 42.959 11.5293 42.7168 11.5293C42.4785 11.5293 42.3066 11.5859 42.2012 11.6992C42.0996 11.8086 42.0488 12.0215 42.0488 12.3379V12.7773H43.2793V14.0723H42.0488V19H40.4023V14.0723H39.4883V12.7773ZM45.4355 14.6758L43.9414 14.4062C44.1094 13.8047 44.3984 13.3594 44.8086 13.0703C45.2188 12.7812 45.8281 12.6367 46.6367 12.6367C47.3711 12.6367 47.918 12.7246 48.2773 12.9004C48.6367 13.0723 48.8887 13.293 49.0332 13.5625C49.1816 13.8281 49.2559 14.3184 49.2559 15.0332L49.2383 16.9551C49.2383 17.502 49.2637 17.9062 49.3145 18.168C49.3691 18.4258 49.4688 18.7031 49.6133 19H47.9844C47.9414 18.8906 47.8887 18.7285 47.8262 18.5137C47.7988 18.416 47.7793 18.3516 47.7676 18.3203C47.4863 18.5938 47.1855 18.7988 46.8652 18.9355C46.5449 19.0723 46.2031 19.1406 45.8398 19.1406C45.1992 19.1406 44.6934 18.9668 44.3223 18.6191C43.9551 18.2715 43.7715 17.832 43.7715 17.3008C43.7715 16.9492 43.8555 16.6367 44.0234 16.3633C44.1914 16.0859 44.4258 15.875 44.7266 15.7305C45.0312 15.582 45.4688 15.4531 46.0391 15.3438C46.8086 15.1992 47.3418 15.0645 47.6387 14.9395V14.7754C47.6387 14.459 47.5605 14.2344 47.4043 14.1016C47.248 13.9648 46.9531 13.8965 46.5195 13.8965C46.2266 13.8965 45.998 13.9551 45.834 14.0723C45.6699 14.1855 45.5371 14.3867 45.4355 14.6758ZM47.6387 16.0117C47.4277 16.082 47.0938 16.166 46.6367 16.2637C46.1797 16.3613 45.8809 16.457 45.7402 16.5508C45.5254 16.7031 45.418 16.8965 45.418 17.1309C45.418 17.3613 45.5039 17.5605 45.6758 17.7285C45.8477 17.8965 46.0664 17.9805 46.332 17.9805C46.6289 17.9805 46.9121 17.8828 47.1816 17.6875C47.3809 17.5391 47.5117 17.3574 47.5742 17.1426C47.6172 17.002 47.6387 16.7344 47.6387 16.3398V16.0117ZM52.5957 19L50.0879 12.7773H51.8164L52.9883 15.9531L53.3281 17.0137C53.418 16.7441 53.4746 16.5664 53.498 16.4805C53.5527 16.3047 53.6113 16.1289 53.6738 15.9531L54.8574 12.7773H56.5508L54.0781 19H52.5957ZM57.1836 15.8008C57.1836 15.2539 57.3184 14.7246 57.5879 14.2129C57.8574 13.7012 58.2383 13.3105 58.7305 13.041C59.2266 12.7715 59.7793 12.6367 60.3887 12.6367C61.3301 12.6367 62.1016 12.9434 62.7031 13.5566C63.3047 14.166 63.6055 14.9375 63.6055 15.8711C63.6055 16.8125 63.3008 17.5938 62.6914 18.2148C62.0859 18.832 61.3223 19.1406 60.4004 19.1406C59.8301 19.1406 59.2852 19.0117 58.7656 18.7539C58.25 18.4961 57.8574 18.1191 57.5879 17.623C57.3184 17.123 57.1836 16.5156 57.1836 15.8008ZM58.8711 15.8887C58.8711 16.5059 59.0176 16.9785 59.3105 17.3066C59.6035 17.6348 59.9648 17.7988 60.3945 17.7988C60.8242 17.7988 61.1836 17.6348 61.4727 17.3066C61.7656 16.9785 61.9121 16.502 61.9121 15.877C61.9121 15.2676 61.7656 14.7988 61.4727 14.4707C61.1836 14.1426 60.8242 13.9785 60.3945 13.9785C59.9648 13.9785 59.6035 14.1426 59.3105 14.4707C59.0176 14.7988 58.8711 15.2715 58.8711 15.8887ZM66.4766 19H64.8301V12.7773H66.3594V13.6621C66.6211 13.2441 66.8555 12.9688 67.0625 12.8359C67.2734 12.7031 67.5117 12.6367 67.7773 12.6367C68.1523 12.6367 68.5137 12.7402 68.8613 12.9473L68.3516 14.3828C68.0742 14.2031 67.8164 14.1133 67.5781 14.1133C67.3477 14.1133 67.1523 14.1777 66.9922 14.3066C66.832 14.4316 66.7051 14.6602 66.6113 14.9922C66.5215 15.3242 66.4766 16.0195 66.4766 17.0781V19ZM70.8066 14.6758L69.3125 14.4062C69.4805 13.8047 69.7695 13.3594 70.1797 13.0703C70.5898 12.7812 71.1992 12.6367 72.0078 12.6367C72.7422 12.6367 73.2891 12.7246 73.6484 12.9004C74.0078 13.0723 74.2598 13.293 74.4043 13.5625C74.5527 13.8281 74.627 14.3184 74.627 15.0332L74.6094 16.9551C74.6094 17.502 74.6348 17.9062 74.6855 18.168C74.7402 18.4258 74.8398 18.7031 74.9844 19H73.3555C73.3125 18.8906 73.2598 18.7285 73.1973 18.5137C73.1699 18.416 73.1504 18.3516 73.1387 18.3203C72.8574 18.5938 72.5566 18.7988 72.2363 18.9355C71.916 19.0723 71.5742 19.1406 71.2109 19.1406C70.5703 19.1406 70.0645 18.9668 69.6934 18.6191C69.3262 18.2715 69.1426 17.832 69.1426 17.3008C69.1426 16.9492 69.2266 16.6367 69.3945 16.3633C69.5625 16.0859 69.7969 15.875 70.0977 15.7305C70.4023 15.582 70.8398 15.4531 71.4102 15.3438C72.1797 15.1992 72.7129 15.0645 73.0098 14.9395V14.7754C73.0098 14.459 72.9316 14.2344 72.7754 14.1016C72.6191 13.9648 72.3242 13.8965 71.8906 13.8965C71.5977 13.8965 71.3691 13.9551 71.2051 14.0723C71.041 14.1855 70.9082 14.3867 70.8066 14.6758ZM73.0098 16.0117C72.7988 16.082 72.4648 16.166 72.0078 16.2637C71.5508 16.3613 71.252 16.457 71.1113 16.5508C70.8965 16.7031 70.7891 16.8965 70.7891 17.1309C70.7891 17.3613 70.875 17.5605 71.0469 17.7285C71.2188 17.8965 71.4375 17.9805 71.7031 17.9805C72 17.9805 72.2832 17.8828 72.5527 17.6875C72.752 17.5391 72.8828 17.3574 72.9453 17.1426C72.9883 17.002 73.0098 16.7344 73.0098 16.3398V16.0117ZM76.1855 19V10.4102H77.832V13.5039C78.3398 12.9258 78.9414 12.6367 79.6367 12.6367C80.3945 12.6367 81.0215 12.9121 81.5176 13.4629C82.0137 14.0098 82.2617 14.7969 82.2617 15.8242C82.2617 16.8867 82.0078 17.7051 81.5 18.2793C80.9961 18.8535 80.3828 19.1406 79.6602 19.1406C79.3047 19.1406 78.9531 19.0527 78.6055 18.877C78.2617 18.6973 77.9648 18.4336 77.7148 18.0859V19H76.1855ZM77.8203 15.7539C77.8203 16.3984 77.9219 16.875 78.125 17.1836C78.4102 17.6211 78.7891 17.8398 79.2617 17.8398C79.625 17.8398 79.9336 17.6855 80.1875 17.377C80.4453 17.0645 80.5742 16.5742 80.5742 15.9062C80.5742 15.1953 80.4453 14.6836 80.1875 14.3711C79.9297 14.0547 79.5996 13.8965 79.1973 13.8965C78.8027 13.8965 78.4746 14.0508 78.2129 14.3594C77.9512 14.6641 77.8203 15.1289 77.8203 15.7539ZM83.5918 19V10.4102H85.2383V19H83.5918ZM90.5352 17.0195L92.1758 17.2949C91.9648 17.8965 91.6309 18.3555 91.1738 18.6719C90.7207 18.9844 90.1523 19.1406 89.4688 19.1406C88.3867 19.1406 87.5859 18.7871 87.0664 18.0801C86.6562 17.5137 86.4512 16.7988 86.4512 15.9355C86.4512 14.9043 86.7207 14.0977 87.2598 13.5156C87.7988 12.9297 88.4805 12.6367 89.3047 12.6367C90.2305 12.6367 90.9609 12.9434 91.4961 13.5566C92.0312 14.166 92.2871 15.1016 92.2637 16.3633H88.1387C88.1504 16.8516 88.2832 17.2324 88.5371 17.5059C88.791 17.7754 89.1074 17.9102 89.4863 17.9102C89.7441 17.9102 89.9609 17.8398 90.1367 17.6992C90.3125 17.5586 90.4453 17.332 90.5352 17.0195ZM90.6289 15.3555C90.6172 14.8789 90.4941 14.5176 90.2598 14.2715C90.0254 14.0215 89.7402 13.8965 89.4043 13.8965C89.0449 13.8965 88.748 14.0273 88.5137 14.2891C88.2793 14.5508 88.1641 14.9062 88.168 15.3555H90.6289Z" fill="white"/>
<defs>
<linearGradient id="paint0_linear_5_2442" x1="50" y1="0" x2="50" y2="31" gradientUnits="userSpaceOnUse">
<stop stop-color="#942DEF"/>
<stop offset="1" stop-opacity="0"/>
</linearGradient>
</defs>
</svg>
