<svg width="16" height="16" viewBox="0 0 16 16" fill="none" xmlns="http://www.w3.org/2000/svg">
<path d="M13.8281 6.39368C13.3875 6.41556 12.9859 6.10931 12.9 5.66243L12.4469 3.31087L3.30624 5.07025C3.17499 5.09525 3.05937 5.17181 2.9828 5.28587C2.90624 5.39993 2.87812 5.53431 2.90312 5.66556C2.99687 6.15462 2.67655 6.62806 2.18749 6.72181C1.69843 6.81712 1.22499 6.49525 1.13124 6.00618C1.01562 5.4015 1.14218 4.78587 1.48905 4.27337C1.83593 3.76087 2.36093 3.41556 2.96562 3.29837L12.2094 1.52181C12.6547 1.43587 13.1078 1.52962 13.4844 1.78431C13.8609 2.039 14.1156 2.42493 14.2016 2.87025L14.6734 5.32337C14.7672 5.81244 14.4469 6.28587 13.9578 6.37962C13.9141 6.38743 13.8719 6.39212 13.8281 6.39368Z" fill="white"/>
<path d="M13.4625 4.40137H2.53284C1.67971 4.40137 0.985962 5.09512 0.985962 5.94824V12.7654C0.985962 13.6186 1.67971 14.3139 2.53284 14.3139H13.4625C14.3141 14.3139 15.0094 13.6201 15.0094 12.7654V5.94824C15.0094 5.09512 14.3141 4.40137 13.4625 4.40137ZM2.78909 6.20449H13.2047V7.14355H2.78909V6.20449ZM13.2047 12.5092H2.78909V8.90605H13.2047V12.5092Z" fill="white"/>
<path d="M6.97969 10.6687H3.92344C3.6 10.6687 3.33594 10.4046 3.33594 10.0812C3.33594 9.75772 3.6 9.49365 3.92344 9.49365H6.97812C7.30156 9.49365 7.56562 9.75772 7.56562 10.0812C7.56719 10.4046 7.30156 10.6687 6.97969 10.6687Z" fill="white"/>
</svg>
