<svg width="50" height="50" viewBox="0 0 50 50" fill="none" xmlns="http://www.w3.org/2000/svg">
<rect width="50" height="50" rx="10" fill="#5EEEE5"/>
<path d="M36.1642 17.1822C36.1642 16.4027 35.532 15.7705 34.7525 15.7705H14.9961C14.2166 15.7705 13.5844 16.4027 13.5844 17.1822V20.0057H36.1617V17.1822H36.1642Z" fill="white"/>
<path d="M36.1643 21.415H13.5869V32.7037V32.8053C13.5869 33.5289 14.1734 34.1154 14.8971 34.1154H14.9986H31.048H34.8541C35.5777 34.1154 36.1643 33.5289 36.1643 32.8053V29.1186V21.415ZM21.7018 29.8828H16.0574C15.6689 29.8828 15.3516 29.568 15.3516 29.177C15.3516 28.7859 15.6664 28.4711 16.0574 28.4711H21.7018C22.0902 28.4711 22.4076 28.7859 22.4076 29.177C22.4076 29.5654 22.0928 29.8828 21.7018 29.8828ZM23.1135 27.0594H16.0574C15.6689 27.0594 15.3516 26.7445 15.3516 26.3535C15.3516 25.965 15.6664 25.6477 16.0574 25.6477H23.1135C23.502 25.6477 23.8193 25.9625 23.8193 26.3535C23.8193 26.7445 23.502 27.0594 23.1135 27.0594ZM28.4633 27.0594H27.0516C26.6605 27.0594 26.3457 26.7445 26.3457 26.3535C26.3457 25.965 26.6605 25.6477 27.0516 25.6477H28.4633C28.8518 25.6477 29.1691 25.9625 29.1691 26.3535C29.1691 26.7445 28.8543 27.0594 28.4633 27.0594Z" fill="white"/>
</svg>
