<svg width="50" height="50" viewBox="0 0 50 50" fill="none" xmlns="http://www.w3.org/2000/svg">
<rect width="50" height="50" rx="10" fill="#888888"/>
<g clip-path="url(#clip0_6_7144)">
<path d="M13.3959 26.5507C12.9995 26.5507 12.6592 26.4043 12.3749 26.1113C12.0905 25.8183 11.9484 25.4737 11.9484 25.0774V23.1129C11.9484 22.7165 12.0905 22.3762 12.3749 22.0919C12.6592 21.8075 12.9995 21.6654 13.3959 21.6654H32.3687C32.1102 21.7343 31.8604 21.8248 31.6191 21.9368C31.3779 22.0488 31.1624 22.2254 30.9729 22.4667C30.4215 23.087 29.87 23.7548 29.3186 24.4699C28.7671 25.1851 28.2416 25.8787 27.7418 26.5507H13.3959ZM16.627 20.011C16.2306 20.011 15.8903 19.8646 15.6059 19.5716C15.3216 19.2787 15.1794 18.934 15.1794 18.5377V16.7283C15.1794 16.3319 15.3216 15.9916 15.6059 15.7073C15.8903 15.4229 16.2306 15.2808 16.627 15.2808H36.2977C36.694 15.2808 37.0387 15.4229 37.3316 15.7073C37.6246 15.9916 37.7711 16.3319 37.7711 16.7283V18.5377C37.7711 18.934 37.6246 19.2787 37.3316 19.5716C37.0387 19.8646 36.694 20.011 36.2977 20.011H16.627ZM29.6805 31.3586V31.5653C29.6805 31.6687 29.6848 31.8368 29.6934 32.0694C29.702 32.302 29.7063 32.6424 29.7063 33.0904H13.3959C12.9995 33.0904 12.6592 32.9482 12.3749 32.6639C12.0905 32.3796 11.9484 32.0306 11.9484 31.617V29.6784C11.9484 29.2821 12.0905 28.9417 12.3749 28.6574C12.6592 28.373 12.9995 28.2309 13.3959 28.2309H26.4494C26.3977 28.2653 26.3503 28.3127 26.3072 28.373C26.2641 28.4334 26.2254 28.4807 26.1909 28.5152C26.0186 28.7565 25.9152 29.0408 25.8807 29.3682C25.8463 29.6956 25.8807 30.0101 25.9841 30.3117C26.0875 30.6133 26.2555 30.8674 26.4882 31.0742C26.7208 31.281 27.0094 31.3844 27.3541 31.3844H28.569L29.6805 31.3586ZM37.3833 28.4635L37.7711 29.1097C37.8745 29.2821 37.9261 29.4199 37.9261 29.5233C37.9261 29.6267 37.8615 29.6999 37.7323 29.743C37.603 29.7861 37.3919 29.8076 37.099 29.8076H35.7032C35.3241 29.8076 35.0397 29.9024 34.8502 30.092C34.6606 30.2815 34.5658 30.5314 34.5658 30.8416V33.3489C34.5658 33.6418 34.4366 33.9348 34.1781 34.2277C33.9196 34.5207 33.6094 34.6672 33.2476 34.6672H32.2395C31.981 34.6672 31.7527 34.5681 31.5545 34.3699C31.3563 34.1717 31.2572 33.8228 31.2572 33.323C31.2572 33.099 31.2615 32.9569 31.2702 32.8965C31.2788 32.8362 31.2831 32.7587 31.2831 32.6639C31.2831 32.5691 31.2874 32.4097 31.296 32.1857C31.3046 31.9617 31.3089 31.574 31.3089 31.0225C31.3089 30.5917 31.2357 30.2815 31.0892 30.092C30.9427 29.9024 30.6799 29.8076 30.3008 29.8076H28.905C28.5087 29.8076 28.2588 29.7258 28.1554 29.5621C28.052 29.3984 28.1382 29.1442 28.4139 28.7995C28.6724 28.4549 28.961 28.0542 29.2798 27.5976C29.5986 27.1409 29.926 26.667 30.2621 26.1759C30.5981 25.6848 30.9255 25.2066 31.2443 24.7413C31.5631 24.2761 31.869 23.8625 32.1619 23.5006C32.2826 23.3627 32.4376 23.255 32.6272 23.1775C32.8168 23.0999 33.0149 23.0569 33.2217 23.0482C33.4285 23.0396 33.6181 23.0612 33.7904 23.1129C33.9627 23.1646 34.0919 23.2507 34.1781 23.3714C34.3849 23.7332 34.6218 24.1339 34.8889 24.5733C35.156 25.0127 35.4361 25.4565 35.729 25.9045C36.022 26.3526 36.3106 26.7963 36.5949 27.2357C36.8793 27.6751 37.1421 28.0844 37.3833 28.4635Z" fill="white"/>
</g>
<defs>
<clipPath id="clip0_6_7144">
<rect width="26" height="26" fill="white" transform="translate(12 12)"/>
</clipPath>
</defs>
</svg>
