<svg width="50" height="50" viewBox="0 0 50 50" fill="none" xmlns="http://www.w3.org/2000/svg">
<rect width="50" height="50" rx="10" fill="#0FBD00"/>
<path d="M21.5334 18.9331H17.2C16.68 18.9331 16.3334 19.2798 16.3334 19.7998C16.3334 20.3198 16.68 20.6664 17.2 20.6664H21.5334C22.0534 20.6664 22.4 20.3198 22.4 19.7998C22.4 19.2798 22.0534 18.9331 21.5334 18.9331ZM21.5334 22.3998H17.2C16.68 22.3998 16.3334 22.7464 16.3334 23.2664C16.3334 23.7864 16.68 24.1331 17.2 24.1331H21.5334C22.0534 24.1331 22.4 23.7864 22.4 23.2664C22.4 22.7464 22.0534 22.3998 21.5334 22.3998ZM21.5334 25.8664H17.2C16.68 25.8664 16.3334 26.2131 16.3334 26.7331C16.3334 27.2531 16.68 27.5998 17.2 27.5998H21.5334C22.0534 27.5998 22.4 27.2531 22.4 26.7331C22.4 26.2131 22.0534 25.8664 21.5334 25.8664ZM36.8734 33.8398L34.9667 31.9331C36.44 29.9398 36.2667 27.0798 34.4467 25.2598C32.4534 23.2664 29.16 23.2664 27.08 25.2598C26.1267 26.2131 25.52 27.5131 25.52 28.8998C25.52 30.2864 26.04 31.5864 27.08 32.5398C28.0334 33.4931 29.3334 34.0998 30.72 34.0998C31.8467 34.0998 32.8867 33.7531 33.7534 33.1464L35.66 35.0531C35.8334 35.2264 36.0934 35.3131 36.2667 35.3131C36.44 35.3131 36.7 35.2264 36.8734 35.0531C37.22 34.7931 37.22 34.1864 36.8734 33.8398ZM28.2934 31.4131C27.6 30.7198 27.2534 29.8531 27.2534 28.9864C27.2534 28.1197 27.6 27.1664 28.2934 26.5598C28.9867 25.8664 29.8534 25.5198 30.72 25.5198C31.5867 25.5198 32.4534 25.8664 33.1467 26.5598C34.5334 27.9464 34.5334 30.1131 33.1467 31.4998C31.9334 32.7131 29.5934 32.7131 28.2934 31.4131Z" fill="white"/>
<path d="M27.6 34.5334H25V18.9334H33.6667V22.4C33.6667 22.92 34.0134 23.2667 34.5334 23.2667C35.0534 23.2667 35.4 22.92 35.4 22.4V18.9334C35.4 17.98 34.62 17.2 33.58 17.2H25V14.6C25 13.6467 24.22 12.8667 23.3534 12.8667H15.38C14.5134 12.8667 13.7334 13.6467 13.7334 14.6V34.5334C13.2134 34.5334 12.8667 34.88 12.8667 35.4C12.8667 35.92 13.2134 36.2667 13.7334 36.2667H27.6C28.12 36.2667 28.4667 35.92 28.4667 35.4C28.4667 34.88 28.12 34.5334 27.6 34.5334ZM15.4667 34.5334L15.38 14.6H23.2667V34.5334H15.4667Z" fill="white"/>
</svg>
