<svg width="50" height="50" viewBox="0 0 50 50" fill="none" xmlns="http://www.w3.org/2000/svg">
<rect width="50" height="50" rx="10" fill="#FFB800"/>
<g clip-path="url(#clip0_6_7159)">
<path opacity="0.01" d="M12 12H38V38H12V12Z" fill="white"/>
<path d="M35.2732 29.4923C35.4329 29.4923 35.5625 29.6215 35.5625 29.7812V34.4063C35.5625 34.713 35.4407 35.007 35.2239 35.2239C35.007 35.4407 34.713 35.5625 34.4063 35.5625H29.7812C29.7045 35.5624 29.631 35.5319 29.5769 35.4776C29.5227 35.4234 29.4923 35.3499 29.4923 35.2732V34.1723C29.4923 34.0131 29.6215 33.8835 29.7812 33.8835H33.3054C33.6247 33.8835 33.8835 33.6247 33.8835 33.3054V29.7812C33.8835 29.6215 34.0131 29.4923 34.1727 29.4923H35.2737H35.2732ZM15.8273 29.4923C15.9869 29.4923 16.1165 29.6215 16.1165 29.7812V33.3054C16.1165 33.6247 16.3753 33.8835 16.6946 33.8835H20.2188C20.3785 33.8835 20.5077 34.0131 20.5077 34.1727V35.2737C20.5076 35.3502 20.4771 35.4236 20.423 35.4778C20.3688 35.5319 20.2954 35.5624 20.2188 35.5625H15.5937C15.4419 35.5625 15.2915 35.5326 15.1512 35.4745C15.011 35.4164 14.8835 35.3312 14.7761 35.2239C14.6688 35.1165 14.5836 34.989 14.5255 34.8488C14.4674 34.7085 14.4375 34.5581 14.4375 34.4063V29.7812C14.4375 29.6215 14.5671 29.4923 14.7267 29.4923H15.8277H15.8273ZM25.0008 25.4062C27.4416 25.4062 32.3141 26.8594 32.3125 29.7401V31.3651C32.3125 31.6633 32.0797 31.9062 31.7909 31.9062H18.2091C17.9219 31.9062 17.6875 31.6649 17.6875 31.3651V29.7401C17.6875 26.8578 22.5601 25.4062 25.0008 25.4062ZM25 17.2812C25.5152 17.2812 26.0246 17.39 26.4949 17.6006C26.9651 17.8112 27.3855 18.1187 27.7285 18.5032C28.0716 18.8876 28.3295 19.3402 28.4854 19.8312C28.6413 20.3223 28.6916 20.8408 28.6331 21.3527C28.4483 23.0285 27.0914 24.3858 25.4156 24.5706C24.9038 24.6292 24.3854 24.5789 23.8943 24.4231C23.4033 24.2673 22.9507 24.0095 22.5663 23.6666C22.1818 23.3237 21.8742 22.9034 21.6635 22.4333C21.4528 21.9632 21.3438 21.4539 21.3438 20.9387C21.3435 20.4584 21.4379 19.9828 21.6215 19.539C21.8051 19.0952 22.0744 18.692 22.414 18.3523C22.7535 18.0127 23.1567 17.7432 23.6004 17.5595C24.0441 17.3757 24.5197 17.2811 25 17.2812ZM20.2184 14.4375C20.3785 14.4375 20.5077 14.5671 20.5077 14.7267V15.8277C20.5076 15.9043 20.4771 15.9777 20.423 16.0318C20.3688 16.086 20.2954 16.1164 20.2188 16.1165H16.6946C16.3753 16.1165 16.1165 16.3753 16.1165 16.6946V20.2188C16.1164 20.2955 16.0859 20.369 16.0317 20.4231C15.9774 20.4773 15.9039 20.5077 15.8273 20.5077H14.7263C14.6498 20.5076 14.5764 20.4771 14.5222 20.423C14.4681 20.3688 14.4376 20.2954 14.4375 20.2188V15.5937C14.4375 15.287 14.5593 14.993 14.7761 14.7761C14.993 14.5593 15.287 14.4375 15.5937 14.4375H20.2188H20.2184ZM34.4063 14.4375C34.713 14.4375 35.007 14.5593 35.2239 14.7761C35.4407 14.993 35.5625 15.287 35.5625 15.5937V20.2188C35.5624 20.2955 35.5319 20.369 35.4776 20.4231C35.4234 20.4773 35.3499 20.5077 35.2732 20.5077H34.1723C34.0957 20.5076 34.0223 20.4771 33.9682 20.423C33.914 20.3688 33.8836 20.2954 33.8835 20.2188V16.6946C33.8835 16.3753 33.6247 16.1165 33.3054 16.1165H29.7812C29.7045 16.1164 29.631 16.0859 29.5769 16.0317C29.5227 15.9774 29.4923 15.9039 29.4923 15.8273V14.7263C29.4923 14.5671 29.6215 14.4375 29.7812 14.4375H34.4063Z" fill="white"/>
</g>
<defs>
<clipPath id="clip0_6_7159">
<rect width="26" height="26" fill="white" transform="translate(12 12)"/>
</clipPath>
</defs>
</svg>
