<svg width="20" height="20" viewBox="0 0 20 20" fill="none" xmlns="http://www.w3.org/2000/svg">
<path d="M18.9048 15.9416L16.0256 12.1822C17.0469 11.2079 17.6886 9.84386 17.6886 8.3253C17.6886 5.38225 15.2864 2.98682 12.3367 2.98682C9.38352 2.98682 6.98473 5.38225 6.98473 8.3253C6.98473 11.2684 9.38688 13.6638 12.3367 13.6638C13.2874 13.6638 14.1777 13.4118 14.9538 12.9784L17.8431 16.7513C17.9741 16.9226 18.1724 17.0134 18.3773 17.0134C18.5184 17.0134 18.6629 16.9697 18.7805 16.8756C19.0728 16.6505 19.1299 16.2339 18.9048 15.9416ZM8.22444 8.3253C8.22444 6.06426 10.0689 4.22653 12.3367 4.22653C14.6044 4.22653 16.4489 6.06426 16.4489 8.3253C16.4489 10.5863 14.6044 12.4241 12.3367 12.4241C10.0689 12.4241 8.22444 10.5863 8.22444 8.3253ZM5.63415 5.64094H1.62609C1.25653 5.64094 0.95752 5.34193 0.95752 4.97573C0.95752 4.60953 1.25653 4.31052 1.62609 4.31052H5.63415C6.00371 4.31052 6.30272 4.60953 6.30272 4.97573C6.30272 5.34193 6.00371 5.64094 5.63415 5.64094ZM5.47289 12.2292H1.62609C1.25653 12.2292 0.95752 11.9302 0.95752 11.564C0.95752 11.1978 1.25653 10.8988 1.62609 10.8988H5.47289C5.84245 10.8988 6.14146 11.1978 6.14146 11.564C6.14146 11.9302 5.84245 12.2292 5.47289 12.2292ZM4.68337 8.92668H1.62609C1.25653 8.92668 0.95752 8.62767 0.95752 8.25811C0.95752 7.88855 1.25653 7.58954 1.62609 7.58954H4.68337C5.05293 7.58954 5.35194 7.88855 5.35194 8.25811C5.34858 8.62767 5.04957 8.92668 4.68337 8.92668ZM8.98708 15.6493H1.62609C1.25653 15.6493 0.95752 15.3503 0.95752 14.9808C0.95752 14.6112 1.25653 14.3122 1.62609 14.3122H8.98708C9.35665 14.3122 9.65565 14.6112 9.65565 14.9808C9.65565 15.3503 9.35665 15.6493 8.98708 15.6493Z" fill="#7C7C7C"/>
</svg>
