<svg width="26" height="26" viewBox="0 0 26 26" fill="none" xmlns="http://www.w3.org/2000/svg">
<path d="M13 1.6377C6.72598 1.6377 1.6377 6.72598 1.6377 13C1.6377 19.274 6.72598 24.3623 13 24.3623C19.274 24.3623 24.3623 19.274 24.3623 13C24.3623 6.72598 19.274 1.6377 13 1.6377ZM13 22.7398C7.62988 22.7398 3.26016 18.3701 3.26016 13C3.26016 7.62988 7.62988 3.26016 13 3.26016C18.3701 3.26016 22.7398 7.62988 22.7398 13C22.7398 18.3701 18.3701 22.7398 13 22.7398Z" fill="black"/>
<path d="M13 6.50757H11.3776V14.6224H19.4924V13H13V6.50757Z" fill="black"/>
</svg>
