<svg width="26" height="26" viewBox="0 0 26 26" fill="none" xmlns="http://www.w3.org/2000/svg">
<path d="M24.1642 5.18223C24.1642 4.40273 23.532 3.77051 22.7525 3.77051H2.99607C2.21658 3.77051 1.58435 4.40273 1.58435 5.18223V8.00566H24.1617V5.18223H24.1642Z" fill="#5EEEE5"/>
<path d="M24.1643 9.41484H1.58691V20.7035V20.8051C1.58691 21.5287 2.17344 22.1152 2.89707 22.1152H2.99863H19.048H22.8541C23.5777 22.1152 24.1643 21.5287 24.1643 20.8051V17.1184V9.41484ZM9.70176 17.8826H4.05742C3.66895 17.8826 3.35156 17.5678 3.35156 17.1768C3.35156 16.7857 3.66641 16.4709 4.05742 16.4709H9.70176C10.0902 16.4709 10.4076 16.7857 10.4076 17.1768C10.4076 17.5652 10.0928 17.8826 9.70176 17.8826ZM11.1135 15.0592H4.05742C3.66895 15.0592 3.35156 14.7443 3.35156 14.3533C3.35156 13.9648 3.66641 13.6475 4.05742 13.6475H11.1135C11.502 13.6475 11.8193 13.9623 11.8193 14.3533C11.8193 14.7443 11.502 15.0592 11.1135 15.0592ZM16.4633 15.0592H15.0516C14.6605 15.0592 14.3457 14.7443 14.3457 14.3533C14.3457 13.9648 14.6605 13.6475 15.0516 13.6475H16.4633C16.8518 13.6475 17.1691 13.9623 17.1691 14.3533C17.1691 14.7443 16.8543 15.0592 16.4633 15.0592Z" fill="#5EEEE5"/>
</svg>
