<svg width="333" height="153" viewBox="0 0 333 153" fill="none" xmlns="http://www.w3.org/2000/svg">
<rect width="333" height="153" rx="10" fill="white"/>
<rect x="0.5" y="0.5" width="332" height="152" rx="9.5" stroke="#6C6C6C" stroke-opacity="0.3"/>
<rect x="116" y="27" width="100" height="100" rx="10" fill="#D9D9D9"/>
<path d="M178.105 74.0491C174.772 74.0491 173.01 77.2363 171.595 79.7979C170.687 81.4393 169.749 83.1358 168.827 83.228C167.824 83.0289 167.136 82.4124 166.343 81.7036C165.227 80.7035 163.97 79.5841 161.756 79.6663C159.056 79.7833 156.615 81.6946 154.5 85.3509C154.351 85.6091 154.31 85.9162 154.387 86.2045C154.464 86.4928 154.652 86.7387 154.91 86.8882C155.169 87.0377 155.476 87.0785 155.764 87.0016C156.052 86.9247 156.298 86.7364 156.448 86.4781C158.152 83.5306 159.971 81.9961 161.852 81.914C163.15 81.8634 163.855 82.4968 164.84 83.3788C165.785 84.2259 166.856 85.1844 168.563 85.4668C168.623 85.4771 168.685 85.4824 168.746 85.4825C171.021 85.4825 172.312 83.1459 173.561 80.8869C174.558 79.0824 175.583 77.2306 176.978 76.5601V89.5674H152.5V67.145H169.662C169.96 67.145 170.246 67.0265 170.457 66.8155C170.668 66.6045 170.787 66.3184 170.787 66.02C170.787 65.7217 170.668 65.4355 170.457 65.2245C170.246 65.0135 169.96 64.895 169.662 64.895H151.375C151.077 64.895 150.79 65.0135 150.58 65.2245C150.369 65.4355 150.25 65.7217 150.25 66.02V90.6935C150.25 90.9919 150.369 91.278 150.58 91.489C150.79 91.7 151.077 91.8185 151.375 91.8185H178.105C178.403 91.8185 178.69 91.7 178.9 91.489C179.111 91.278 179.23 90.9919 179.23 90.6935V75.1741C179.23 74.8758 179.111 74.5896 178.9 74.3786C178.69 74.1677 178.403 74.0491 178.105 74.0491Z" fill="black"/>
<path d="M154.362 73.9174C154.362 75.9548 156.02 77.613 158.058 77.613C160.095 77.613 161.753 75.9548 161.753 73.9174C161.753 71.88 160.095 70.2229 158.058 70.2229C156.02 70.2229 154.362 71.88 154.362 73.9174ZM159.503 73.9174C159.488 74.291 159.33 74.6443 159.06 74.9034C158.791 75.1624 158.431 75.3071 158.058 75.3071C157.684 75.3071 157.324 75.1624 157.055 74.9034C156.785 74.6443 156.627 74.291 156.612 73.9174C156.627 73.5439 156.785 73.1906 157.055 72.9315C157.324 72.6724 157.684 72.5277 158.058 72.5277C158.431 72.5277 158.791 72.6724 159.06 72.9315C159.33 73.1906 159.488 73.5439 159.503 73.9174ZM181.75 65.1402H179.592V62.9824C179.592 62.6841 179.474 62.3979 179.263 62.1869C179.052 61.9759 178.766 61.8574 178.467 61.8574C178.169 61.8574 177.883 61.9759 177.672 62.1869C177.461 62.3979 177.342 62.6841 177.342 62.9824V65.139H174.46C174.162 65.139 173.875 65.2576 173.665 65.4686C173.454 65.6795 173.335 65.9657 173.335 66.264C173.335 66.5624 173.454 66.8486 173.665 67.0595C173.875 67.2705 174.162 67.389 174.46 67.389H177.342V70.2713C177.342 70.5697 177.461 70.8558 177.672 71.0668C177.883 71.2778 178.169 71.3963 178.467 71.3963C178.766 71.3963 179.052 71.2778 179.263 71.0668C179.474 70.8558 179.592 70.5697 179.592 70.2713V67.3902H181.75C182.048 67.3902 182.335 67.2716 182.545 67.0607C182.756 66.8497 182.875 66.5635 182.875 66.2652C182.875 65.9668 182.756 65.6807 182.545 65.4697C182.335 65.2587 182.048 65.1402 181.75 65.1402Z" fill="black"/>
</svg>
