<svg width="26" height="26" viewBox="0 0 26 26" fill="none" xmlns="http://www.w3.org/2000/svg">
<g clip-path="url(#clip0_23_1272)">
<path d="M0 13C0 16.4478 1.36964 19.7544 3.80761 22.1924C6.24558 24.6304 9.55219 26 13 26C16.4478 26 19.7544 24.6304 22.1924 22.1924C24.6304 19.7544 26 16.4478 26 13C26 9.55219 24.6304 6.24558 22.1924 3.80761C19.7544 1.36964 16.4478 0 13 0C9.55219 0 6.24558 1.36964 3.80761 3.80761C1.36964 6.24558 0 9.55219 0 13H0Z" fill="#2775C9"/>
<path d="M12.22 8.1737V7.3612C12.22 7.15433 12.3022 6.95593 12.4485 6.80965C12.5947 6.66337 12.7931 6.5812 13 6.5812C13.2069 6.5812 13.4053 6.66337 13.5515 6.80965C13.6978 6.95593 13.78 7.15433 13.78 7.3612V8.17044C15.1913 8.38251 16.159 9.18526 16.4174 10.3284C16.4326 10.3959 16.4325 10.4659 16.417 10.5332C16.4015 10.6006 16.3711 10.6636 16.3279 10.7176C16.2848 10.7716 16.23 10.8152 16.1677 10.8452C16.1054 10.8751 16.0372 10.8907 15.9681 10.8907H15.5464C15.2051 10.8907 14.8939 10.6933 14.7493 10.3845C14.4796 9.81251 13.8418 9.48263 12.9927 9.48263C11.9299 9.48263 11.2133 10.0043 11.2133 10.7859C11.2133 11.4115 11.6894 11.7771 12.8424 12.0501L13.9246 12.2979C15.834 12.7351 16.6416 13.5232 16.6416 14.9248C16.6416 16.4766 15.5577 17.5272 13.78 17.775V18.7143C13.78 18.8167 13.7598 18.9181 13.7206 19.0128C13.6814 19.1074 13.624 19.1934 13.5515 19.2658C13.4791 19.3382 13.3931 19.3957 13.2985 19.4349C13.2039 19.4741 13.1024 19.4943 13 19.4943C12.8976 19.4943 12.7961 19.4741 12.7015 19.4349C12.6069 19.3957 12.5209 19.3382 12.4485 19.2658C12.376 19.1934 12.3186 19.1074 12.2794 19.0128C12.2402 18.9181 12.22 18.8167 12.22 18.7143V17.7896C10.6454 17.5995 9.581 16.7659 9.33156 15.4903C9.32066 15.4342 9.3223 15.3763 9.33636 15.321C9.35042 15.2656 9.37656 15.214 9.4129 15.1699C9.44924 15.1258 9.49488 15.0902 9.54656 15.0658C9.59823 15.0415 9.65467 15.0288 9.71181 15.0288H10.3521C10.6421 15.0288 10.9062 15.1953 11.0305 15.4578C11.3254 16.0777 12.0802 16.462 13.0252 16.462C14.1594 16.462 14.9476 15.9014 14.9476 15.1198C14.9476 14.4421 14.4649 14.0513 13.2795 13.771L12.0608 13.4842C10.3269 13.0861 9.50625 12.2524 9.50625 10.9102C9.50625 9.46395 10.5974 8.42476 12.22 8.17288V8.1737ZM3.25 12.9999C3.25 8.69776 6.058 5.04882 9.94825 3.77319C10.0185 3.75009 10.0932 3.74396 10.1662 3.75528C10.2393 3.76661 10.3086 3.79508 10.3685 3.83836C10.4284 3.88164 10.4773 3.9385 10.511 4.00428C10.5447 4.07006 10.5624 4.1429 10.5625 4.21682V4.49226C10.5625 4.91069 10.3082 5.28851 9.92063 5.44532C6.92656 6.65757 4.8165 9.58338 4.8165 12.9999C4.8165 16.4149 6.92412 19.3399 9.91494 20.5529C10.3057 20.7114 10.5617 21.0908 10.5617 21.5125V21.7416C10.5617 21.8204 10.543 21.898 10.5072 21.9682C10.4713 22.0383 10.4193 22.0989 10.3554 22.145C10.2916 22.1911 10.2177 22.2214 10.1398 22.2333C10.062 22.2453 9.98237 22.2385 9.90763 22.2137C6.0385 20.9259 3.25 17.2875 3.25 12.9999ZM22.75 12.9999C22.75 17.2778 19.9745 20.9088 16.12 22.2048C16.0422 22.2311 15.9593 22.2385 15.878 22.2264C15.7968 22.2143 15.7196 22.183 15.6529 22.1351C15.5862 22.0872 15.5318 22.0241 15.4944 21.951C15.4569 21.8779 15.4374 21.797 15.4375 21.7148V21.5312C15.4375 21.0989 15.6991 20.7106 16.0989 20.5464C19.0816 19.3301 21.1827 16.4092 21.1827 12.9999C21.1827 9.59395 19.0864 6.67545 16.1078 5.45669C15.9097 5.37572 15.7401 5.23758 15.6207 5.0599C15.5013 4.88221 15.4376 4.67301 15.4375 4.45894V4.29157C15.4376 4.2088 15.4573 4.12723 15.4951 4.0536C15.5329 3.97997 15.5877 3.9164 15.6549 3.86813C15.7222 3.81987 15.7999 3.7883 15.8818 3.77603C15.9637 3.76376 16.0473 3.77114 16.1257 3.79757C19.9769 5.09513 22.75 8.72538 22.75 12.9999Z" fill="white"/>
</g>
<defs>
<clipPath id="clip0_23_1272">
<rect width="26" height="26" fill="white"/>
</clipPath>
</defs>
</svg>
