<svg width="26" height="26" viewBox="0 0 26 26" fill="none" xmlns="http://www.w3.org/2000/svg">
<path d="M25.9767 12.9954C25.9767 20.1396 20.1856 25.9307 13.0414 25.9307C5.89748 25.9307 0.106079 20.1396 0.106079 12.9954C0.106079 5.85133 5.89748 0.0600586 13.0414 0.0600586C20.1856 0.0600586 25.9767 5.85133 25.9767 12.9954Z" fill="#1BA27A"/>
<path d="M19.1123 6.58301H6.86386V9.54002H11.5096V13.8863H14.4666V9.54002H19.1123V6.58301Z" fill="white"/>
<path d="M13.0162 14.3493C9.17308 14.3493 6.05735 13.741 6.05735 12.9907C6.05735 12.2404 9.17295 11.6321 13.0162 11.6321C16.8593 11.6321 19.9749 12.2404 19.9749 12.9907C19.9749 13.741 16.8593 14.3493 13.0162 14.3493ZM20.8297 13.2172C20.8297 12.2496 17.3315 11.4653 13.0162 11.4653C8.70094 11.4653 5.20245 12.2496 5.20245 13.2172C5.20245 14.0692 7.91512 14.7791 11.5097 14.9364V21.1756H14.4665V14.9389C18.0888 14.7865 20.8297 14.0736 20.8297 13.2172Z" fill="white"/>
</svg>
