<svg width="38" height="40" viewBox="0 0 38 40" fill="none" xmlns="http://www.w3.org/2000/svg">
<path d="M4.80952 28.0952L0.999993 34.1905C0.809517 34.5714 0.999993 35.0476 1.47618 35.0476L6.61904 35.3333C6.80952 35.3333 6.90476 35.4286 6.99999 35.5238L10.1429 39.7143C10.4286 40 10.9048 40 11.0952 39.7143L14.7143 33.7143C14.9048 33.4286 14.8095 33.1429 14.5238 32.9524L5.57142 27.9048C5.28571 27.8095 4.99999 27.9048 4.80952 28.0952ZM33.1905 28L37 34.0952C37.1905 34.4762 37 34.9524 36.5238 34.9524L31.3809 35.2381C31.1905 35.2381 31.0952 35.3333 31 35.4286L27.8571 39.619C27.5714 39.9048 27.0952 39.9048 26.9048 39.619L23.2857 33.619C23.0952 33.3333 23.1905 33.0476 23.4762 32.8571L32.4286 27.8095C32.7143 27.619 33 27.7143 33.1905 28ZM32.4286 7.23809L20.3333 0.380947C19.4762 -0.0952439 18.3333 -0.0952439 17.4762 0.380947L5.47618 7.14285C4.61904 7.61904 4.04761 8.57142 4.04761 9.5238V23.1429C4.04761 24.0952 4.61904 25.0476 5.47618 25.5238L17.5714 32.381C18.4286 32.8571 19.5714 32.8571 20.4286 32.381L32.4286 25.7143C33.2857 25.2381 33.8571 24.2857 33.8571 23.3333V9.71428C33.8571 8.66666 33.2857 7.71428 32.4286 7.23809ZM26.7143 13.0476L19.6667 23.2381C19.4762 23.5238 19.0952 23.7143 18.7143 23.7143C18.3333 23.7143 17.9524 23.5238 17.7619 23.2381L11 13.0476C10.619 12.5714 10.8095 11.8095 11.2857 11.5238C11.7619 11.2381 12.5238 11.3333 12.8095 11.8095L18.619 20.5714L24.7143 11.7143C25.0952 11.2381 25.7619 11.0476 26.2381 11.4286C27 11.9048 27.0952 12.5714 26.7143 13.0476Z" fill="#FAD77B"/>
</svg>
