<svg width="16" height="16" viewBox="0 0 16 16" fill="none" xmlns="http://www.w3.org/2000/svg">
<g clip-path="url(#clip0_11_9495)">
<path d="M0.858981 8.95441C0.615077 8.95441 0.405638 8.86427 0.230663 8.68399C0.0556881 8.50371 -0.0317993 8.29162 -0.0317993 8.04772V6.8388C-0.0317993 6.5949 0.0556881 6.38546 0.230663 6.21048C0.405638 6.03551 0.615077 5.94802 0.858981 5.94802H12.5346C12.3755 5.99044 12.2217 6.04611 12.0733 6.11504C11.9248 6.18397 11.7923 6.29267 11.6756 6.44113C11.3363 6.8229 10.9969 7.23382 10.6576 7.67391C10.3182 8.114 9.99478 8.54083 9.68725 8.95441H0.858981ZM2.84733 4.92999C2.60343 4.92999 2.39399 4.83985 2.21901 4.65957C2.04404 4.47929 1.95655 4.2672 1.95655 4.0233V2.90982C1.95655 2.66592 2.04404 2.45648 2.21901 2.28151C2.39399 2.10653 2.60343 2.01904 2.84733 2.01904H14.9524C15.1963 2.01904 15.4084 2.10653 15.5887 2.28151C15.769 2.45648 15.8591 2.66592 15.8591 2.90982V4.0233C15.8591 4.2672 15.769 4.47929 15.5887 4.65957C15.4084 4.83985 15.1963 4.92999 14.9524 4.92999H2.84733ZM10.8803 11.9131V12.0403C10.8803 12.104 10.8829 12.2073 10.8882 12.3505C10.8935 12.4937 10.8962 12.7031 10.8962 12.9788H0.858981C0.615077 12.9788 0.405638 12.8913 0.230663 12.7164C0.0556881 12.5414 -0.0317993 12.3266 -0.0317993 12.0721V10.8791C-0.0317993 10.6352 0.0556881 10.4258 0.230663 10.2508C0.405638 10.0758 0.615077 9.98835 0.858981 9.98835H8.89191C8.8601 10.0096 8.83094 10.0387 8.80443 10.0758C8.77791 10.113 8.75405 10.1421 8.73285 10.1633C8.6268 10.3118 8.56317 10.4868 8.54196 10.6882C8.52075 10.8897 8.54196 11.0833 8.60559 11.2688C8.66922 11.4544 8.77261 11.6108 8.91577 11.7381C9.05893 11.8653 9.23656 11.929 9.44865 11.929H10.1963L10.8803 11.9131ZM15.6205 10.1315L15.8591 10.5292C15.9227 10.6352 15.9545 10.7201 15.9545 10.7837C15.9545 10.8473 15.9148 10.8924 15.8352 10.9189C15.7557 10.9454 15.6258 10.9587 15.4455 10.9587H14.5865C14.3532 10.9587 14.1783 11.017 14.0616 11.1336C13.945 11.2503 13.8866 11.4041 13.8866 11.5949V13.1379C13.8866 13.3182 13.8071 13.4984 13.648 13.6787C13.489 13.859 13.2981 13.9491 13.0754 13.9491H12.455C12.296 13.9491 12.1555 13.8882 12.0335 13.7662C11.9116 13.6443 11.8506 13.4295 11.8506 13.122C11.8506 12.9841 11.8532 12.8966 11.8585 12.8595C11.8638 12.8224 11.8665 12.7747 11.8665 12.7164C11.8665 12.658 11.8691 12.5599 11.8744 12.4221C11.8797 12.2842 11.8824 12.0456 11.8824 11.7063C11.8824 11.4412 11.8373 11.2503 11.7472 11.1336C11.657 11.017 11.4953 10.9587 11.262 10.9587H10.4031C10.1592 10.9587 10.0054 10.9083 9.94176 10.8075C9.87813 10.7068 9.93116 10.5504 10.1008 10.3383C10.2599 10.1262 10.4375 9.87965 10.6337 9.59863C10.8299 9.31761 11.0314 9.02599 11.2382 8.72376C11.445 8.42153 11.6464 8.12725 11.8426 7.84093C12.0388 7.55461 12.227 7.3001 12.4073 7.0774C12.4815 6.99257 12.577 6.92629 12.6936 6.87857C12.8103 6.83085 12.9322 6.80434 13.0595 6.79903C13.1867 6.79373 13.3034 6.80699 13.4094 6.8388C13.5155 6.87062 13.595 6.92364 13.648 6.99787C13.7753 7.22057 13.9211 7.46712 14.0855 7.73754C14.2499 8.00795 14.4222 8.28102 14.6025 8.55674C14.7827 8.83245 14.9604 9.10552 15.1353 9.37594C15.3103 9.64635 15.472 9.89821 15.6205 10.1315Z" fill="white"/>
</g>
<defs>
<clipPath id="clip0_11_9495">
<rect width="16" height="16" fill="white"/>
</clipPath>
</defs>
</svg>
