<svg width="60" height="60" viewBox="0 0 60 60" fill="none" xmlns="http://www.w3.org/2000/svg">
<g opacity="0.3">
<path d="M8.71428 42.1429L2.99999 51.2858C2.71428 51.8572 2.99999 52.5715 3.71428 52.5715L11.4286 53.0001C11.7143 53.0001 11.8571 53.1429 12 53.2858L16.7143 59.5715C17.1428 60.0001 17.8571 60.0001 18.1428 59.5715L23.5714 50.5715C23.8571 50.1429 23.7143 49.7143 23.2857 49.4286L9.85713 41.8572C9.42856 41.7143 8.99999 41.8572 8.71428 42.1429ZM51.2857 42.0001L57 51.1429C57.2857 51.7143 57 52.4286 56.2857 52.4286L48.5714 52.8572C48.2857 52.8572 48.1428 53.0001 48 53.1429L43.2857 59.4286C42.8571 59.8572 42.1428 59.8572 41.8571 59.4286L36.4286 50.4286C36.1428 50.0001 36.2857 49.5715 36.7143 49.2858L50.1428 41.7143C50.5714 41.4286 51 41.5715 51.2857 42.0001ZM50.1428 10.8572L32 0.571481C30.7143 -0.142805 29 -0.142805 27.7143 0.571481L9.71428 10.7143C8.42856 11.4286 7.57142 12.8572 7.57142 14.2858V34.7143C7.57142 36.1429 8.42856 37.5715 9.71428 38.2858L27.8571 48.5715C29.1428 49.2858 30.8571 49.2858 32.1428 48.5715L50.1428 38.5715C51.4286 37.8572 52.2857 36.4286 52.2857 35.0001V14.5715C52.2857 13.0001 51.4286 11.5715 50.1428 10.8572ZM41.5714 19.5715L31 34.8572C30.7143 35.2858 30.1428 35.5715 29.5714 35.5715C29 35.5715 28.4286 35.2858 28.1428 34.8572L18 19.5715C17.4286 18.8572 17.7143 17.7143 18.4286 17.2858C19.1428 16.8572 20.2857 17.0001 20.7143 17.7143L29.4286 30.8572L38.5714 17.5715C39.1428 16.8572 40.1428 16.5715 40.8571 17.1429C42 17.8572 42.1428 18.8572 41.5714 19.5715Z" fill="white"/>
</g>
</svg>
